<mxfile host="app.diagrams.net" modified="2023-11-03T03:00:31.706Z" agent="Mozilla/5.0 (Windows NT 10.0; Win64; x64) AppleWebKit/537.36 (KHTML, like Gecko) Chrome/119.0.0.0 Safari/537.36" etag="9FLBmR76ouMsSkKHtNh-" version="22.0.8" type="device">
  <diagram id="C5RBs43oDa-KdzZeNtuy" name="Page-1">
    <mxGraphModel dx="4754" dy="2692" grid="1" gridSize="10" guides="1" tooltips="1" connect="1" arrows="1" fold="1" page="1" pageScale="1" pageWidth="1169" pageHeight="827" background="none" math="0" shadow="0">
      <root>
        <mxCell id="WIyWlLk6GJQsqaUBKTNV-0" />
        <mxCell id="WIyWlLk6GJQsqaUBKTNV-1" parent="WIyWlLk6GJQsqaUBKTNV-0" />
        <mxCell id="KxcnRvvnHj6e-e_dJs2Y-0" value="" style="shape=image;verticalLabelPosition=bottom;labelBackgroundColor=default;verticalAlign=top;aspect=fixed;imageAspect=0;image=data:image/png,iVBORw0KGgoAAAANSUhEUgAAA2YAAAA0CAYAAADheyufAAAgAElEQVR4Ae2deVAUR///n//62YKCQgsKoYASKK9SwfLAWBhFk4r3lctoygM1kAcVfdSYR6OReCSoqMEDTYyi8esVNGLI5RU1GhOJJkYUYqKPV4xEEzXhUTfzq3r/qmfo3dlh2OmFZUeTD1XU7OzOdH/61e8+Pt09Pf8A/REBIkAEiAARIAJEgAgQASJABIiArQT+YWvsFDkRIAJEgAgQASJABIgAESACRIAIgBwzEgERIAJEgAgQASJABIgAESACRMBmAuSY2ZwBFD0RIAJEgAgQASJABIgAESACRIAcM9IAESACRIAIEAEiQASIABEgAkTAZgLkmNmcARQ9ESACRIAIEAEiQASIABEgAkSAHDPSABEgAkSACBABIkAEiAARIAJEwGYC5JjZnAEUPREgAkSACBABIkAEiAARIAJEgBwz0gARIAJEgAgQASJABIgAESACRMBmAuSY2ZwBFD0RIAJEgAgQASJABIgAESACRIAcM9IAESACRIAIEAEiQASIABEgAkTAZgLkmNmcARQ9ESACRIAIEAEiQASIABEgAkTgH//vz19B/8SANEAaIA2QBkgDpAHSAGmANEAaIA3YpwFyzMgxJcecNEAaIA2QBkgDpAHSAGmANEAasFkD5JjZnAE0KmHfqASxJ/akAdIAaYA0QBogDZAGSAMPigbIMSPHjEZHSAOkAdIAaYA0QBogDZAGSAOkAZs1QI6ZzRnwoHjoZAeNFpEGSAOkAdIAaYA0QBogDZAG7NMAOWbkmNHoCGmANEAaIA2QBkgDpAHSAGmANGCzBsgxszkDaFTCvlEJf7KvqjyLa7cqqUIzlCfiYq3v+zdO4+qvN+ulHeJszdmf5Z3CIt6kAdLAw6wB5d6PuHT5Kv501q/teZgZPKi2k2Nm6Eg+qBlFdj24jYByJhepIQyOhCzs/50qOaFV4uJds85re7F6Yg8khMRh5tG664Y4e+cs9EhH4kQaIA2QBjQNKLc24DnWGElPvYSissv1Ghgkpv4tV/V2zH54syv++c9/uv4Zi8b0w3XvZPiSwUrpTLRmzBW33o7Bhd97FZriPIRXWzE0mrDD63W12eOs/Bwbpw5EatsYREQ1Q0rfsVh1uBz3LUYf6htvbfaYff/zkQIsyduCivuByQ9hgx3x3r34PhaO7YG2MY3QqEkzPPrcdBSdvWKat/62T7mwFkObNUbMo3NQ+r/AshbM63usOr8TeVl90DExAmGhjZHQoTeyl3+Iq/fc6bm6trerrDEWgsiEZPQfn4uDV8xnCv3NxVu+KTfX4ela6gJeLwSiXvJmnzF/7v2wDiOaB4FFpyI7fyvKLWbMvNUbgeTM03FhZZqqg5Cn38aN6vpOcZ5CfncGNm6LaZkzpv9BOFecP6JwEAOLzMJnzpswnnMb7WzfHgRG/rDByNV47o846hqGnfmrr0/VOiokEi1TeiJj8S5crnLXu3VNW6DuM+an8ZzbYSfnv1s/0cjfeC50odyvwFebZmNYUihY4xTM+uy8X+rum5uGgPVaiivVbcP3S7sgaNRGVFn0jYVd+qNSvh0l5XJlQXGWYknedlRIxKOUL0Cm5LV6ewL1ud6O2W/fbMWGwgLtf2YfhAfSMfv5AIrUuFdiUjcG1nQQ5lfb8vGZq15F5q2jYwVfuX8Sq3qHgYW3w8hZuShYMQfje8aCBbXD3OM/NVi8VnYZfy/L7QjGhqP4rpywjffX9TzQ8Sq39+I/SUFwxKUh+43FKMjLxuCWIWBxT+O9KzXTHmj76soxUPfdryjAkDg+49cdmTNysGpVLuZl90bz4CAkZe90db55R4KxJGSuKMCG9fnIz0nHo9EMjjZZOPBLTc7+tt9bvilVX+NTUQ8VFmByGgNLGII3XN+9gy9MtOBPG73Zp49H+d8xLOwaDJb4LLb+eN1rfSHuq099JcKQPVqlQzhmLHgANl/X8v3hdMwuY8uzDCwuG0dUx8zznPOys32Tza8H/TrF6cnVeG6n/Xbmr0d9yuuptYuwIKsbYhhD/MiN+Emig2knOxG3MT+N5/w6Ozkrf7N+opG/8Vzkmzgqv32GN3qGg8UOxY5r9W/Hv5rVAlGTd6vtmuKsRElmKDq+cVSqnRM26Y8VeenILBHtTCmWZKQjs/o/NZUhVXeufl9SKhWXUpKO1NQFUo6c3p5AfK63Y6Y3Ujk8CTEBdMxE3Dzzd4xmYEkzcUqyMqtPR0c5OhUJLBwjt//gEoBy5xNMbckQkr4J//NiQ33iFemVPVp1sGTD8fW6QMdbVTwaYaw5ph92O+PO83no6WBIzatZSANtn6/8Anm94vwBm59pBNbmBXx81XPmq/KDMUhg7bG4TKsUtY5Eb2zQVd5Vpa+gA2N4ouCUqyw0lP2+5FvxOAbW/lWUeSmL/rZT1r5bu0YhgkVh3PvyI5QPUr3BHTOWmIz20UF4aqO2MuHhdMyuo2gkA2s+DaWqY+Z5btSHXe2b0Y6H7VxxenI1nj8o6Ql0/prVp4rzZ5TOaQfGOmLJ2fp3kgPB1pifxnOjDYHmLOL/u/QTjfyN54KH/vhnxSJ0D2ZoP/9IvZ45U5wX8O6TDH3WlKn9AcV5AnldgjBmh/cJC70txs/qTFhqZywxzJxp33t3rPg1xvDEeW3h8t9Vpy1DbvZNhOfPY8Adsztn1mPKwA5IbBKBZl2HoeDYB+qSwshJxR4A718uwdKMHkiKCUOjyAR0HjIRG0svmIpGpsDdOrUGk/q1Q3xkJFqmjcLa0o+Q08ZzKaOoKNd/XYRXBichNiIKrVOfweuflOGeroN3493BYKwH3rrorji5+I+vzcLkhTvxs+5amXh5hvqSXm8CUL55FcnelnSlvOYxQmAVr+L8L/ZkNwcL6Yrl5e6Ou3L7Y0xpxRDSbR7O3L0JX+PlaVAqd2Fq5yhEJD6BFSflZg7M0v7Tur5gbCC23NDnxzl888G7+KC0QqsgfOCiXCtAf8bQ/+3P8PHsAWgXF46o5h3x9MxNOK97hsy4RIKxMEze67ZB2CqrK369bPkQYdf3qNxcj2cdQXhyg3vpr+K8hl8rL+Ge80NMjmYY8E65ylCkQ++YCYch9MXtrrIpy4Xb7qw8jA1TB6Jr21hENElEx16jsXTPKdeyh7roiodr5ZjZpXteV32UxUcns3BQt0zUmI8y9YZdnFXHLCYTs7JjEDy4ANdVp8Z8KeOds5sxd2Q3JCdEIDy6BVL6Z2D1kXI4q+tIxbkD/wpmGLv0bYxOaoK4rhOx5+IR5A9qhqj4FGRtPem6ljOyyjc9R5n6ZfcLDrC2M/BttT3Gc4/wJAYerdLLwxPlyKqd4dfK1AdqfrBB2HrTXfcozmN4vX3NpaUy9snGy6+TzQ8jV+M5D0vmX7m/F9MTGUKHrcctXTvL7z2f/6jaLr+ta5dl08vvt3IYfOEsw0XoQF+fqnZ8NhFNWBAmfKTlp2x7xO+9e2Encsd0R5voMISGx6HDoCysP37Bg62It/CbYsx9ugOaRjZByy6DkVNyynRQ2ZZyRP3EGv1Tnr8yuuLXGcuX8Zxfo//nyx03DHaAGfqH+mu8febt2q2rZbh8sQiTmjVG5rbTuHyxDJcvvI0Roa0wY28ZLlfW3Tkzi5svR0zN2O5KR0V5TUdKXQpZsh0ldf03OINmdjTEdwF1zJTbJZjcnIHFdsOE1xepS84GpKUhrTmD3jHjS9NmtgtCSIu+mLJwMVbnz0TGo1FgjdOw6qzbORBArBwz5bf3MT6BITixFybnakvdBvTsg75tzRyzVPQZ/AhGzMrFqmVT8XSbULDgLlha5o5XVGzGClXYI46y8fqaXhG+2VH5eR+2rF6GNauXIeepeDDWGRMLtHP+3ZptB1xL02TjVSqLkJnIEDGkQF03zJ3Qbxd0giOoI9448bNaMHyJV9itHMxGVLUT2XPFt64CJn6XPTqPTEECi8TQDd/V+oyfL/aJhrBb7wHoMfo/WF6wCK+N7YxI5kDn14+4OoruJRIF2DCnP6K8OmbWupItH7JcZK5Tvp2DJNYK809onYC7ZwowrFUo+DNkrUb9BxNTGB5Z9JWaN2a65yNiS1IZ2PMb3M6Ua+mIdy5K1SHMSwkBC2+PUXxJ8MocTOodjyBHK0zZr3UmfMk3fXq9OWZ26l5xnsbKngxsyGrcNHQshf3S9YZNnNUOashYfLBvPGKD+mDjT/z5rJqOmXJ9G8YlMIR3eAazlizDWytnY3xaLFhYd6ysrseFY9byifF4Y/k09G/KkJQ6FOMXLcSUx6PAIkfjwzvVHVRf2wWJ+uWTCWFgHebgTHVeGM9FnvCjVcddJr08HK0c+a8+kHUYZO2TrYdkyxFPs5Gr8VzP2dtn3tYfmtYUrNFwFN/WO6JnsboXA+u5CBer81I2vSI+q/yV5iypU7P6lNtyrbA/GIvHrC88HTPL9qjqEHI6OOCI646JvH+1bDpGdGgMFjkAmy+7Wbn0NyQVo17NRUH+TIztEgnm6IiFp9z9HBeXQJcj6ifCrH/a0OXt5Nw2YI5RKKnDngSi/tfv82D8HDOlpE59PKW81OM5s4qSBVhSsh1LMjqrz4kJp4v3QzIllzEKbRuPvjzTZrzXn+cBdczuFo9GMIvH5H26JWen5yKFeTpmv257FsHsESyrcFcSyq1iTExkSJj+cY3MtXLM/igaDgdriVeOak4EB+gsm48uDjPHLBzPbdZmWfh1f55bhDQHQ7v5R1zx1lahGjNGNl5f02uMp7Zzq6VVvsR7fecIxLFYZBSfx58/LEOvMAc6zN7n6ozrbbCKV1yr3D6ElaN6osfALBT9+IuLr/hd9qg4y/De8wlgLALJg17A3DWbcOxC7bsMWdknHLPIYetRKRp55zm8+2RorctllS+no7lXx8xaV7LlQ5aLzHWa3WlYc5F3ri9hx+jGYIkDkLttC7bM7of4EIaU3GNq3pjp3swx08frjUvVB2PQiMUgc7d7RFepOow57RkcQ9fVGBG3yjd9vN4cMzt1rzi/Qm5HBjZ2s2uGUW83/yxbb+jvCyRnrYM6Ah9UlWBSUwcGrjtr6pg5T63DjOk5+Eg3g6Hc3IBhIQydF36pako4Zt3fPKGe8+cTWP8V6qqDP/dPQCTrhGUVWqfSl3zjbPxVvwjOVh13mfTysLRy5L/6QNZhkLVPth7yNT8Ex/oe7+2fgFgWjgkfXXO1GcrPqzHQwSB0xOOQTa+wxyp/ZTnLctF00APLTvKZBj67UIrjO2ejX1MGR/J010ZSsu3R7zueRwhrhVlf6LkUYmgEQ9Lcwy5WWrwReH6bbpXE9UIMbczQatY+13UuLn5qp13hWcw8N5T+qJ/oOUsm8kMcL6zoDsaGYPtvbide/GZ1VJxXceFYMfYVDENs+CAs21uMfXuL8enrfRHcYjQK9xbjYNmPNbRVW7jqMsOMdCzJW6A6YMzwLJi2DDEdJbrBzZKMmssdRfjc4cpM7YxUqf90D0dQhBHIY0AdM61iexLv3XJnvOLcg5eaejpmX+e0Bosagx28snL9f4n8fuYjzVYF7tyyVDD2DIqqR145YBGvfldGrcLqhoILevsOYnZLhuAX3VOm2nWez9qYZZpsvL6m1ywus++sOrK+xKs4K7B9eDRY0ouYOSIKrG02jujyUR+/Vbz6a/31Wakqw8HVkzA0NR5hjIEFRaP7tC24ZLJczMo+0RAaZ/G+nZ8EFpyOj0xGlLx1jGV1JVs+/MWMh+PpmB3B3CR9p3kvXk5sOMfsR3XpkecSLG7T1RM78cnhrxvMMbNT97UtMdPnqWy9ob/Hm/78zVnTKd9UqBIHp8bD0W85rprMmAn7nHfO46qrHi/C5GYM4dnvq420cMx6r9aeSTi1IBnsqbfwG18eeXQq4lkyFn6n1ce+5JuI259Hq467iMtbevk1/q4PZB0GWftk6yG78kOpKsbEaIa4ScWuFRI3Nj+FYNYJS02WHlnlh+Bilb+ynGW5cB0YZxUYcyCu5wQUlbuXfcm2R2q7FjoGH+vaJzFD73h+A/6o7sRq+tMG41xpd36NxY8wOEZtNF3OKK7zx1GOM/UTeb9Y3z+V1VVd88hM376GdW19P7CBK9Xl7fze07kd0ChjK+7qHChfw+TPe4nNP8S9inM7MnXLGPn33hwzcd/DcgyoY1aR1xmMDcWOP/SOj7ZtvX4p4xczEmtUWKICE6OpesBWjplZR1w8G6MXvlZheTpcZh0ps+v09ojPsvH6ml4RvtXRLH79Pb7Gq1x6C0MiGBhLwKQ9/6119MMqXr0N/v6sOG/g98uHsGt+f8SzYDy+8mQNO63sEw1h/7VnPe69eaoIRds/xSWTSsZbx9hML2a6ki0f/mTm6ZjtxfR4BpFuPiq1MKXhHDOz9HpLm1W+6e/1NmNmp+7N8l1vN/9slk6z+kp/nzf9+Zuz1oBru73e/3wyEh2P4Z3Lp7Cc74Sp2y5f+eMEtk3qps66ivpbHEW964tj5mu+6fn447NVh1ImvdwOf9cHZh0qM53J2memF6G/+rTT/sgDHgbfIOPDf0WCJWbj6H0+038FRSPDwDrm4KyubpZNr7DLKn9lOcvqVNNBCl4u0mYX9h3Yi1M/nMMfOsdKTa945tmiPeLxilc/uNLk/B7v9GeuWWj+vbn+qpciD12HOzqGIhx/Hq04N5T+qJ9oMWPGN3UyPKsqm+/OW+dw+eJ32DImHK2nFlVPqBzHigEMaW/sx+WLP+D3OupKOGa8PyKWLZbkdUZqxgL3OV/amNoZmRmdwVI9Z9J4GrR7S1FR7v1fC7fms2qyHPx1XUAdM/4+A8aeRZF+AwXnAbxieMZMrWCin8HK6ulQPiXq+j9+usaIzl+hwDEf0iub+WYdPP29vnL+49h0tHMEISioEQau/bbWpVhW8eptaKjPfHegoucbgXWe67HZCY/Pyr7aHDNvtnrrGJs3hDUfzpctH97s8PW3v6tj5kt586fuFedx5HZiYOmbXM8qGvPMTJ+iYywcGuM93vRn1tEx3q8/N4tf/7veMVPu7cXLzfguXHux6jG3Y8YHSL7L7YQgFou+Mwuw+xNRh7+J0fHukWBfHTNf8k1vsz8+e+tQyqaX2+Hv+kDGYfDFPtl6yNf2wx95IML4fXc6wlkL5By/AeX395ARwdB+gftxA1/SK8L0lr/8GhnO/DpZLmY6ELboj7LtkRpv9Tv5xP3KQ+iYNZT+qJ/o3THj75pj7CkU1bISSmjK7PjLxkG1Tqbwwbj6vLZJOGZm8fryHX9WzcoxE7/7Em5DXBtQx+y3zU+p28DmndHNmFW+g6eCTJYyhmdin6SHbVXgtIIuu5TResastl0Zj64YjRdytuNatd2y8apT1D6kV1YIVh0sX+JV/jiEOZ2CENYrF9tmtgGL7I93L97wmFESdlnFK67zx5E/F7U/dzjS52z32A2Th318dkuw6Ak4bNCRlX2yDaHefm8dY7MG2GxEW7Z86OOt72dPx+wI5iUxpOVrs4yK8zDmtGYQSzrN06HNeOt3ZdTb5I2LtsTOuJvmDVz+YhN2fHpMXc6mD8sq3/TXepsxs1P3irMcb/VhYH3za31PkWy9oU9vIDl7OGbOX/DFjBZgT7yCufxlzdUzZvxhcHUG7fE8jxlmxbkfM5vVzTHzJd/0bPz12VvHXTa93BbzclRzoEa2PlCXD7FeKPxJ164aBjx9sU82XjvzQ7m1BemNNWfs7t4sRLFWmPe1Pv1y+tNrw1v+8utkOPPrZLmY6UBvj/gs2x6p9aMfljLWZ9mZsNnb0YpzQ+mP+oneHbNjM5uBhY3DHkN/yVteit/uXTqMfXtew8CQBGSsrR6E2zkFXVlHTNvOz4/U2t6JMGo7Gh0zbTMQMyeL775ovj0+nzHjTldtcYjv1Zk1k+XQ4vdAHf3rmJXORGsWhuxP3Jt26BOinH8Tj4cwxPaZgeLjpaj45n2sGJmKxBhPx+zm1mcQzFphxhH3JiFK1UEUZAzFxI3aDnEe4Vq8x+yPomE1N/84Mx+PMHcHgYdnVlGadaDFe8xGeLzH7CP8uwVDyJj/c83oycbra3r1aff2Wev41j4CIhsv34Xx5PwUBAV1Qu4316H8UoTMBIaoZ9biqkkhtopX2KzcOYyC9J7oOWg8dp6v2+YfivMXHJwaC9a4LzbqHEWl6gjmd2ZgPdy7dIl4reyTbQhFePzorWMsrSvJ8qGPt76fla9eRgsmNv+4gt0vNEFQxyzs+qYUpe+ORisWgykHtFcZmKWjqnSm1/eYeeMiNv/IKNZv/nEQs5MZgp5bj9sGbVnlm56FN8fMbt0feTkeLGwYdtUyMilbb+jTG0jOeseM2+D8cjpasS549FG9Y3YO6wYwsM45KNctzbpbNg9ddfWuLzNmsvkmuPijfhFh8aP2egLz9k1xyqWXh2NWjkzbGcn6gHd0Y1kk0ovc78VznpmPLur7Bb9TOyO+2NdQ7bSeZX0/8wG590aEgqXl4j2+YUzLl9R30YlwfUmv6x6r/osEZx6WrE7NdCBs0R9l26Pfd45QN/945WjNzT+S533u6pRq8YZjxPZzru+U6s0/2rx6wPWdsCGQ5YjH2VD6s3LMZOtds3wzLb/V77t90PuJKnPnN1jG6+8nluCyod0VOrA6KucXo7vjadceEmrfosm/cKCO4Yn4ajpmC5BpWMaoLnHkj0oZnjtzheEs1ZY68s1EvP2rSyG9vxtNhNmQR/86ZreLkc23R+4yBkvXFmADf5t9YQE++1GbWeHvRzq9fijahjB12pOxSDyWuwT/bunpmCm39+DlpCCwmK7Imr8Ia1a+iok948BC2mP+V/pK5wCK1DhWYlI3BtZ0EOZXx/nxGZ1T99tOZPHt8pv1wr8X5qEgbxIG9eiBHi3q6JjdP4lVvcJ023zPwfiesXAEtcO8Up19kvHKptdXIdz7fDKasVCkjM1BQfUW+muKj7l2UpSN9+6puUgNYUiescd170/bhiKKRWPkdvcOlsI+q3jFdX7bLr98GXpFMIQ0ewKT+TbB+bPwYvcYdcvhF3e7Gx8Rr5V9sg3htS83uDSubZcfgt4vu3X/0WlNg9IVuWT5EOnwx1Epm4eOrDUWnNRGm50/bEB629Dq8hmKdi9ucs14aOlIQuYKnsZ85Oek49FoBkebLOz/xT1aLcuFb5c/l2+XH6Ftl796VQ4m9UlQt8ufdqDmM4xW+abn4c0xs1v3949OQ0sWjMfyvzZdzqhI1ht2cTY6ZuoyyzbVdbruGbP/ruuLxiwUSc9OwZsFS/FmzhikdX0CvVu7611fHDPZfBM68Ff94grPon2TSS8Py9/1gXL/BFY8HgoW0Qnj5la/hqZ5MFjCaHxY6S6Xsvb5u50W/Hw5Hn4pDoy1wGulbvuN93MHKMSRjPbJDC1m7KlRlmTTK8JVLPJXlrOsTs10IGzRH2XbI6Xqc8xLCYKjaZq2Xf6b0zGyY2OwJoOx7aqboxZvN/R5sgvS5yxEwfKZGMe3yw/qhLzTNQfVA12O/K0/92ttqJ+o15X+853PJqIFC0a/t7VNmPS/yX6+VzIWYe1m43S1I8aXN7I+b5oO3suGya8TjllJ3gJ1F0b+/rLMvJqzX/y6VJPv1TBUx6zms2dGO0Rcxu8Dfe5Xx4wbX/nFIozr3gJNqp0vvr70hV2ehb3q+kmcPLoHJ85fgLN6aUsT4wumL+3G4nE90CY6FI2iEtFpQCYKDp31qHyNL1gVD5bz4+BC91aw3C7+wtbJ/ZIRH8FfbP0cVn6xW32xtf6ZDbOK0mwkhIenvRh3ALq0iUEEt6/vWKw8fNa1S5TISJl4+bX3LdLLtyOtdO1spt+tUnwux29V7sqXh8mfszqW/zxSE8MRVP2+MDa4AL/oRjAs4737FfK6h4I1fxH7f3WHz3d7WjeoMVjT4dj1s/t72XjV6yp34t+dohCe+BjyT9T9BdM8rNsVW/F6ek90atEE4dHNkdJ3DJYfKDPdDciKi2xDyJdK6jVn/Cw20fBFVzwtMuWDX+ePf+XWuxgR6sCgQreDrdypQPlXe1Fa/r3LEedx8XSINPL3nEUkJKNfVi4OXvEs37JceJjOykMonDoAqbwcNUlAB8MLpvVptMo3/bXeHDN+na26d57DjtGxYKEd8dLHZzxeXi/SIFNv2MXZ6Jhxm0+81kbVhljKyL9T7lfgSP4YPJ4Ui/DwGCT3fgGFJz5Vd/4U9a4vjplMvgl+avx+rF9EuN7aN5n08nAaoj5wXv8Mb2f3QUrzJoho2gZpw2dg9zn34KTKQyI/RDr5UaYesipH+vBkPyvO6neShY/BJ4Y2TR+Gwh+DCOabUcVh+mHPOohfJ5sf+jC95S+/ToYzv06Gi5kO9LaIz7LtEb/+3n93qS+Ybh0VipDGseoLpgtL3SsS+DVavP2w8UQRXhmcjLgI/oLpIZj74Xfm7WWAy5FIt7/093fqJwp2vhxvlxVgeCJDSMpMnNBtzOdLGPza8sUpCEnf5FoxdnRGAuKmfVjvfgp3lvj7eMXOjOSY+anz5y2DlRvr8WwwQ5fFx+udgd7iedh/Ex0Y0TE2HpluW+mHPa1kv9vpaujyoTgvYtfYKLBmI7HjYv2cY8o3d75ZsVBuHUL+4Hg4WBOkDJ+BTy95Dm5Y3U+/y7P+K7Fq6PqgNlaBjFe5vwsT+O6/hkHE2myj730rC5pj1gcbDQOqDzLHQOrvQebgT9uU/x3D/2X3Qeswhkbtx+L9CzUHN/wZX13DKslgHjNh5Jg1gGOmXNmLLdXLDQvXzMOkx/nIcVfkn3kwRVFXMfn7Pr5m/vQ+sbOZ2XEPfqzDiwH9bSeF51sjaeRlR/lQrmzBCy2DwaI6YeRLs7D8LW055t4KctSM+ePPc+XeOZS+Ox0juqXgtaPkmPmT7V8lLDvqA87OrnjVuCtywZ+Pe2RRzefJ/yr5amc6ZGfq7LTRTv3Zme5Axq3c2oiMto9j/OKt+L6W550DacjB0C4AAAJZSURBVE9tcWkbd7jbR9Uxq+UZM+9LGZn8C6Z1q8pqs6shv/f7UkYrY7UdebTnERyNY5HUcwSW7C+rsQTQKhz6vX4OAPF7MPnZVT6c1/bhnf88i+5t4xARrJXP5zbXfM6LdPNg6oby5a+ZL3bVB3bFy3VctWsUglk0ph2s24ZQVBa8l4WHwjE7PAkx1Y9fUD/Re37+3fRudNRE+rXdGt0OnPieH9XdFvPs39RDb5O3zwF3zLwZQ79RASQNkAZIA6QB0gBpgDRAGiANkAb+jhogx6wBlmv+HYVEaaYKlDRAGiANkAZIA6QB0gBpgDRQdw2QY0aOGW26QhogDZAGSAOkAdIAaYA0QBogDdisAXLMbM4AGlWo+6gCsSN2pAHSAGmANEAaIA2QBkgDfxUNkGNGjhmNjpAGSAOkAdIAaYA0QBogDZAGSAM2a+AfoD8iQASIABEgAkSACBABIkAEiAARsJUAOWa24qfIiQARIAJEgAgQASJABIgAESACADlmpAIiQASIABEgAkSACBABIkAEiIDNBMgxszkDKHoiQASIABEgAkSACBABIkAEiAA5ZqQBIkAEiAARIAJEgAgQASJABIiAzQTIMbM5Ayh6IkAEiAARIAJEgAgQASJABIgAOWakASJABIgAESACRIAIEAEiQASIgM0EyDGzOQMoeiJABIgAESACRIAIEAEiQASIADlmpAEiQASIABEgAkSACBABIkAEiIDNBMgxszkDKHoiQASIABEgAkSACBABIkAEiAA5ZqQBIkAEiAARIAJEgAgQASJABIiAzQT+P9lOuCMIAeijAAAAAElFTkSuQmCC;" vertex="1" parent="WIyWlLk6GJQsqaUBKTNV-1">
          <mxGeometry x="-1130" y="-720" width="870" height="52" as="geometry" />
        </mxCell>
        <mxCell id="KxcnRvvnHj6e-e_dJs2Y-2" value="&lt;font style=&quot;font-size: 27px;&quot;&gt;http://127.0.0.1:8058/graphql?lang=en&lt;/font&gt;" style="text;html=1;align=center;verticalAlign=middle;resizable=0;points=[];autosize=1;strokeColor=none;fillColor=none;" vertex="1" parent="WIyWlLk6GJQsqaUBKTNV-1">
          <mxGeometry x="-1064" y="-620" width="480" height="50" as="geometry" />
        </mxCell>
        <mxCell id="KxcnRvvnHj6e-e_dJs2Y-3" value="" style="shape=image;verticalLabelPosition=bottom;labelBackgroundColor=default;verticalAlign=top;aspect=fixed;imageAspect=0;image=data:image/png,iVBORw0KGgoAAAANSUhEUgAAAuIAAAGpCAYAAADIlFMNAAAgAElEQVR4Aey9C5AdxX3vf3IrFTllVxTfFK7YrjgVx5VXJf97XblxclI38U0sl4MNMiCDEbgwLw9g8TAWGIExtiMIIoaDMMgCGZC1lsHGKySEGL1WKwlWD5BAEs/VEVoEWj1Wz31Iu1qtpO+/ft3TMz09PWdmz57H7J7fVp2amX78+tffHmk+0/Obnhwy9Ld4Zj8ev7kPrfMGYr2iPCpDZZP+ioU8cvkCiqGCRRTyOeQLRbhODjnHBYoF5HN5FMIFYa8fMhZzINsg04ALJ5eD3KfjoH175XT5uVwO+i/vNyDri36pBoz+iX4b9aM6qcrRben6gf92feP80zWKtmlLKTk+roNczoFDYxw6B6LtF10af3lOUDul+2fzRE8L+u+nhvSPth93/vn1S+2EbMuCwv9Qn3UDNfZPb5r3K65AR0cHdu/eXfJHZbZt24be3l7+sQZ8DvA5wOdAxs6BXMWvDCMwuGa+hOyWufEgTnkE4lQ26c8OahqICIhx4Fpghmzb6ye1KiqGwJ7AiMBf/mntW02lyyfQLhaLKKQATRP0FCBT/eBndcaaWLq+5r9VX5kfvVGoMIh7Nzx0s+Lfo4jeeO0bNyJ0I6NGqHT/rJJoiXb7gR9x/Y/eCGpG43dt565Ioxu1PPKOg0Ih6Jv1RtArL3WqsH/xnnNOBRRgEOebC77B4nOAz4HRfQ5kCsTpunS8+wymT+xGf++ZyGWK0iiPyqT5s4O0BA0JxnLfKVR2Rly0a4BeMCurt2/rRbp8H2TFzK8OcbK+n09NGLCmQNPWepq00vV1/+V+WN84/0xgTvbEPr5BPXt+0L5/ExJUEXul+2cUjhyq/ssbJb+NosL8oH2/qjE+fnqandi6Rbiui4LjIJ8nKHcgHtDYnsgwiKdROpNlGMRH9wWYAYrHj88BPgcyB+KnhoDp53aj99DpyIWP0ijv1MlIljWhFIipGWpRxnHgVDA0RYGcD2Guo82Q20DMhZPPezO3w82XoS8BeNvqh280lH9W0VIklq4v24/XN9m/FC6IIvbxDWrb8y3tB1XEXun+GYUjh+H+q2w6F+Sfpf1YmKb564Q/W1160hGqpodHWfwL2Rief6Fm+KDmCjCI80WcQY7PAT4HRvc5kD0QPylBvOdgPIgPDSZd72TIhevFiLsiBEPVMUDEmw2kx/h+9IhX1A5yyk7cVoceVSacJuzmCLylnyK8xJ+x9EJiYvOjoCTtqRlPs74rYuKDGVEvBtoLbfFvFnxQVD7HbxWo6nVN0FQgLmfjZZiE1DfwX9anmxAzjju+bT0naXzs+UH7ui19v3T/9JL2fXN8XScfmZEObpyiTyykVe8GKxJaY7QZgmivpghXopArL/SoQPHywfkd9s88Pyz6WNowvODDOinAID66L8AMUDx+fA7wOZA5EKfr2axrerH2qRPQgZv21z41gFnX9iZe8gRImaEhPuhK0PBB0Y8lDkBFNWAHOZUbs7VCiwk39KIowZn3wmXeMW4CSuWbthTIhePQS9m365M+NKR0/SR9Pf9V3+klyXwBbngKN0bccHLS+NjzLfqFzdpf1kwC4pCNcsbPPP+UTnkUZExJqAX/wHq+EVxr5xfd1IXuMqP+Bfpb9LG24XvAO3VUgEGcL+IMcnwO8Dkwus+BTIL4vp2n8MTUPhGGQkBOPwpJeXJqHyivrn8CSjyA1mCSoDqA+7p6OLLG692/erefpF7W/Iu8I5DUAc4fSwowiI/uCzADFI8fnwN8DmQSxLN+oTRDMvzjrDue0j+/Pyq0QW1T1h9psXq3n+R/3f1T41EsP6wnqY+cPzoUYBDni3gjg9y+g7145sUe3DW/B1MelT/apzTKa2RtuO+jZ/wZxEfH9Za9ZAU8BYLYcfEUxjHXyWehGkmBSoL43vd68fysHsy7vQcvL+kVP9qnNMrjC3tYg9YZUzBlShPae3rqok1PTzvq7UM9z4m2N3pw05xuPNFyDK++ewK7D50UP9qnNMqjMvX0kdsO/5thPex6MIg30lWb+8oKsAJjSoFKgviz9/fgpeZeHDkUwAvtv9Tcg2cfCNIqdTEliDz33HPF75xzZqC1TkBbTn8kBJ+DevpNPjRNOQfnTGmqqXatM87xx02N34zWyp8fpcaFAHvqEz3Y9t4JHOgesv4oj8okwbjSUfWFtudMmYHW9ur1iTQ8Z0ZrRW8SelpnlDwfe3paMeMceb7U6+ax1Jgm5cX1j9L1sVP755wzBU1VHEPdX3EOaf+fTZnROqwbdAbxMXVZ5s6wAqxAIylQKRDvPtqLubf1YP/u6IzN/k6Z130kmqdfjIaz39PehCnnTMGM1na0t9OvetAzHL+4bPIYE0ROaWr1xk2OXy1123uwV8x26xD+3v6TWP7aABZu6A/BOZWhmXGqE+ejAvGgT62Y4d3gVAtY6wLiBOpTpoh/d7UC1DjNy0mPA3GyJf8PoSdE4XOznHbKqSPG85wZaBL/lzWJG54pTe2x55zZBoN4I121ua+sACswphSoNIh37YkCC6URpFcDxG1AYJtd0i9cEmKa0OTNQOmzl+JiPWWGB1Iz0No6A1POoYtzuoui7WJvplH7/qybJTSllP/tTVOELwr+1Kwo2Uwzq6zqqfZpq2wojcTM5xTdx/DThlL+KftTmpqEhmR/yoxw+A35mlZP5VMltxT//fjKY/4s+KYdJ3Dr3F40rT4uQPwH8/vwzEv9fj6VpTpxPgR9Ds4RdaOozs9S5xzZLaWpzJdwr/Rs0mbEVfv6+Mv2ghlzm311k0Dnp34+qH16UqLKkA907p0zo0k8RdHbivNfr1uq/bj6lO7nTQmf33r/VP/jzrm0/aO2bOemOZbCJ+3pQVL7fh+MGW9K9/OM/ol/59q/G5t+fv3WGWAQH1OXZe4MK8AKNJICBOJpftu2bYsFEbogHNjbi1/c1oPDB6IgTmmU17U3mqcuJmm3sRdVLTRFXKRFaEA72i0gLfL92fTw7KWCZpqZorAN8YhYu+gm+ake3+ugIgBGgxq6qIoZODHDGIYdsh/yvz08Oyb8m9EKCctThH8SBNI/Ru8Rs27Sh1YBVwGwBe03oVWUa5XhK1oYRMg/Q18FJRRyI2b3jHxlf8oMeYOjwFKHtiSNR5pPL2NSHLgKSbm9qRcbtwfHew+fxOMrjoO2VIbKUp24dlWf9ZsLE95KnXNKE3lDWOKcNc5pdQOl2tfPOdGeOWb+mNDTpPDNkH8+0r8j//wI+qy3IYHccs6UsC/7r86JaPtpzqm4/infSp1zSf1TY0t+6ONI6cq+nq7rq/Jp/OQ5n9A/89+0FyKm90/5o7Yl9WEQb6RLNveVFWAFGlWBUiC++lc9WDSzB+ufCy7c6gKitpRHZaisSit3Ky+qMjSlyQhNsYGwftGkNs1jBd8UYy72PWimcnRxlFAVnhUu5btuX12k9Yu4qqu35ad5cbj6RVkHH+GL8K8VM2bQzD2BPMXupvdPtUVb3bZKJ/9t/lJ+kr62/up6kA1xrICvNQotyo9qbWl1FHoxkyC7uHcQtzzZ60O5gnN9S2WpTpw/Zp/p2O+j996CqUHonLOMuV4+reb6OZNUv721CTMoPEh7r0L3yeyr9EHe7Jnnrc0/3X45+WH/5U1xfP+8m2btqZVeX/WlVP9UGapnO/f1m2mzP+b4k61S5f1870ZJ1df7p/yhrdkepen9o37xjHijXpm536wAK9AwCpQC8Y3PS8hetzAeViiPQJzK6heZcvfNGUdlx3bR0i+K5kWMjmmGuJWAvkIgrl/w4/wU7VpmxJX/KjxAbVWYgH9TQLNqTTRbTTOYTWWvvmIDcfKf2qV44BkUitCqhVxYoFHXV0GFDjM6NIh+0xMBDQBtPlC5av2qBeJqrIR2xot+EQ30cy5RU/mSpA5quj2leXx+tL5NW/28NfNFnneDap7T6pzV29frl5NvO6d0+7b+lzrnyJ9S/VP+kl3djkrX++z/G/TOYaW/Xi/sv9RfPz/kvy/5NEzV1/un2hV+J50fDOINcx3mjrICrEADK1AKxOlicXC/DD851BUFKBWaQmX0C8xI9vULo27HdtHXL4pUVr+I63VpXwcOKkcXR/PCa9Yxj3UfzLb1snpbKj2o64WvGGECMt+LXW+Syw820ayyFoagbKXZCv8sdeXNSRNm0BKLWhhD4F9wQ6X3UUGFDiWl9CYf9fppfB5pmeqFpgQvoJo+ltIgWdMoSOv2lOY6yIXzo/VN/+i4FKjSGJkgqdqz+a/bLydfPyeS+1f9GXHlA53Xwjft34yep/od9l/pH/dvOjrjr+yIcWEQb+ArL3edFWAFWAFPgSQQV6um1PtlTdtFX4cSurCZx6GLnjZLTeXKAXG9DRFnrj0yj2tLpdv8pwu9mkGWF32aqaYVY3oEFFCIiooXVnZoS2X1Y9u+CRWiXnu4nh0qAhDX9bRBiZnf3toaWtpPz7f5WOm0Wrysafpcqo+2MdfLJ+eXBlFbfT10RPkaB+L6mIqwMJrND70sqkAzOCd0+0nt2/LD9pP6Vzo/qX8qn7bUrn4TqefJfwfyRW69jK6PKq//u7L1j+qE/02HX0al+uolZ1v9kD5ZnRE/tPs0mu44hnvO6xaft6dP3NM+pVEe/7ECWVGg6DrI5/MouFnxiP1gBaIKJIL4EbkySldndNZbrZpytArLF6pVKdQFUF1ME19802a09Lr6LDVd7MoFcWnHvtSb/7KkB/3q5Tjlh7jIqhfzjBe7/P55oQ/UzhRaUs6AfTmLn7xOuQ4MZFtBBa2OIaGrvJc1dX90aPD9V/2rQ4x49ZYvDN/AqPH0+xxzzvn5vibRlXpC54T3Aqx+8yXG0Y+7l/XVjLVvX71MaTmnqIwE8SkiFEmMvR96QaAdfhlYtOeFqqSxL/wv0b6tf/o5VKp/6pzVy5vnXKn+UZ76UT3djkoX9cWSqfRvKqyFar/clzXJ9kj0oXHLZIz4Yzf0YfmcAQwOnPGvKLS/bE4/5tzY56fF7bhODvTVwfDPgWSlIgp5ysujUPQsFAvIq2PXMeppdpzh0JZqJ4dotSJcJx+0k3cCX4RLpfIDu0H/8nBcvzOyf3qjev8A2PWx+WlROEkfka9p65kQbQqfYvz3B2OE/llcrmZSsSDHUZe7mu2xbVagHAWSQJwuJr+d0S2+pqkDN+1vXNKDZ+7r9i92+sWt3P240BSyJy6MMUuFUb7tIq38kAAtYzepXNkgri7aGqxI3+TsofmYX7+42/xXs2dkw4cSimn32tGhS7TTLttRseWqf+ZW2DIAkWzSOtjKR3lTE8x22vxTdhWU6DBj6l2qvrJT7W01Puij99n039TAzE/SRMyKemNCM6X68oVkS69P59IM88aMVuYw/k3o55TyJ/SRLO+8kIAefhlYnndBmt4+nTfmB2nKyVc+JfVP2KYVjrQ+x+lt65/eDtXT7eh5qh3z35RKj1s+0fS/0vpkEsRPDQHTz+1Gd1d05rv7wGmRd+pk0qWoiGKxCJcgKV+AW6RjVScAwbyCPwNUqW60fhG+CWWq1Nazmc/n4LfjlZfwJuGZ2imIGwd1owCUzvf8d1zho/DTg3oJg0G+757RPwXFqp9q65dP2FHlw/oqfZLaD/JDdnLBjcBI/Utwn7NZgYZTIA2If1DsxXMP9Yg1w9Un7mn9cEqjPP2iFrevwFJBoNrW8wuUuq9Z90/3Nc1+HLCkqTvayxCM8yfu0/27HO1jXQn/A+AOP/mIS69Em2ltZG5GXIF476EoiFMaQXoyiMvrrADafMEAaAmCFE5AkC7g2gBVdZW211e5CVuaGaabAO9mIID4AER9C0UXTp7AnFLKyPfqSOC31ddm/NWMeAWmcGP1MWbFFVjL/lr8M/ocLu+rNIydFE8UnAIK/lMJpX2aJjz/Q09czCcAdHOlPfHI5eGomz7RRNQ//4GGr0W5/qXpA5dpNAXSgHjai0ZSORWHGt4GM7JJ9audH/ZLvYCVHf+S+u/774U4mLPpSfXHUv6+g73iYz30AietpkI/2qc4csobS33lvoxsPOVNeDgshTRlELdcDfuOnMH0id3o7w3CUlSxgT6Z13s4CumqjL61g6IEqXyhAEfNwlYBxH2YFLaD2W4F2uYseeC38i9A9yCP9qIgK+KUVV8s+TD65/sWNjzsI7u+gY+ij6LtYLbb5j/V0H3S94ftFCkkwkXinjgokFb5rheqpI9RQqveExMxo++Gb3JE70X7FG4kn6wUCxTuFMB62D+z/Qr4l+A+ZzeeArUEcQaGkQFDKf30GX1bCEOpupxXvXFhbbOvrRkXr8aMQdy4Hi6e2Y/Hb+5D67wBIyc4pDwqQ2WT/uygGICuD3wGqCq79voqt9RWtiEnnd0A+EWVoH27hXT5QXy4jGHP+zPcsn7OPxZkGsTAK+gNzejmgqcDdqesqSX1EbPiDhwKu1FPHrT+6/4VBcwGITxiXMr2z6Jf0UXBcSBnnZP1sXY2LtFy7gj/Q33WK9v802G+wv7pTfN+wyrAIJ59UFBgwFseKz4HGuscyFRoypr5ErJb5saDOOURiFPZpD87KGogJCCKAE0HocCqvX6QH7tn2CMwC2bAtfatBtLlE8jSjKyILw9BXzLIqRsQFaMtt1ZnSiaW1sfzw5+pV6aCdP1mgm4k1DOAkfmXXj/lkfnEwE9Ps2OMtagi0uQLwXnHQaEQ9E09EQjOB3WjpJ4aJI9fGre4DCugK8Ag3lgXdgY5Hm8+B0bPOZApEKcLx/Hu+NAUClehsBUqk+bPDoo6qMl9p1BZEBftxs7o6u3bepEu359RNuKxFej5+dSEAYsKdG2tDyfNrm9gwZ4v+6duJMRNQFBF7I3Mv2HqRy0a+hjulD6MrVuE68qZeHphN5dToS8W/zxwlw8xAn38hmPb8EvwDitQUgEG8dFzUWaA4rHic6CxzoHMgXjNXtb0Xp4TsOg4cLQYXnVFs4Okyo3fKpD0Z5xprWnfvg20RvKypgx9CcDbZj98o6H8i+9Bupwkfez5Fv+M5kbmn7QfnnGW+sq1vi3tlwBdNUtvuBgc2upSbHhQgoKBtPAkm3/6+AzPv1AzfMAKxCjAIN5YF3YGOR5vPgdGzzmQPRA/KZcv7DkYfSFTrZoyNBhztfGTbcsPqkwDhLzZSP1lOr9kZMUTlVNqq0OXKhdOE4BKK2m40s9yly9U1qU9NeNqvqxovgwYvBjp3yh4LxUqe2m3dtAOatvzLaAZVBF7CsTL9a+0vpb2bTDtwTOFz+jh9oar1tl04X+eQp5G8LKm3qjVv4gnnMAKxCrAID56LsoMUDxWfA401jmQORCnK8msa3rFFzV14Kb9tU8NYNa1vbEXG5UhQMgMDYkNDfDAzJ+xVlY8oA3FXwd5sXtWaDLhL7p8XWh1O5TKN22p0IpwHHqpDwbZ9UkATkuH7aAdFLTnW/wPqoi9kftXjn7BqibSHe28KPUdJ+t4083PSJcv1Bq1tmGIxoesQAkFGMQb68LOIMfjzefA6DkHMgni+3aewhNT+8Sa4fR5e/rR+uFPTu0D5dX1T0CR9rVNDfhD4RB1dXIEjWe9f1nzLxKjPwLtuSorUCUFGMRHz0WZAYrHis+BxjoHMgniVboWVcysGTLhH1eshfoa8vujQivUtr5u+a3X3T+lh/gQk7k8o+8m77ACmVGAQJx/rAGfA3wO8DmQvXOAQTwzl0p2ZHQo4L0c6z0JyTvml1tHRy/Yy8ZSgC6+/BdWYO/eveEEPmIFWAFWoA4KMIjXQXRukhVgBViBWirAIB5Vm0E8qgmnsAKsQO0VYBCvvebcIivACrACNVWAQTwqN4N4VBNOYQVYgdorwCBee825RVaAFWAFaqoAg3hUbgbxqCacwgqwArVXgEG89ppzi6wAK8AK1FQBBvGo3AziUU04hRVgBWqvAIN47TXnFlkBVoAVqKkCDOJRuRnEo5pwCivACtReAQbx2mvOLbICrAArUFMFGMSjcqcD8VM40b8fBwdORA1wCivACrACFVCAQbwCIrIJVoAVYAWyrACDeHR0SoP4IN5/51bc+PMP4/MP/Q4uWLMxaoBTWAFWgBWogAIM4hUQkU2wAqwAK5BlBRjEo6NTEsSPzsY1D+VwXvOPsWTHSmw5fDRqgFNYAVaAFaiAApkE8UO7T6PpjmO457xu8Xl7+sQ97VMa5fEfK5AVBYqug3w+j4KbFY/YD1YgqkBdQfzMAPa/sRqLm5vR3NyGXUNR/+qRUhLEO27ChJl/jkf5mz/1GBpukxVoKAUyCeKP3dCH5XMGMDhwxh8M2l82px9zbuzz0+J2XCeHnPflw2DrQLJSEYU85edRKHoWigXk1bHrWOp69pzh0JZqJ4dotSJcJx+0k3cCX4RLpfIDu0Hf8nBcvzOyf3qjev8A2PWx+WlROEkfka9p65kQbQqfYvz3B2OE/llcrmZSsSDHUZe7mu2xbVagHAXqBuKDh9DetgQLFryAF9csHz0gvucunD/zjzDz/XLU5jqsACvACqRXIHMgfmoImH5uN7q7ojPf3QdOi7xTJ5M6WESxWIRLkJQvwC3SsaoTgGBewZ8BqlQ3Wr8I34QyVWrr2cznc/Db8cpLeJPwTO0UxI2DulEASud7/juu8FH46UG9hMEg33fP6J+CYtVPtfXLJ+yo8mF9lT5J7Qf5ITu54EZgpP4luM/ZrEDDKVAvED+0zcWCF9rQfnAQg++1jR4Q756Na2bm8IN3jjfcucIdZgVYgdoqkFkQ7z0UBXFKI0hPBnEpogDafMEAaAmCFE5AkC7g2gBVNQT2+io3YUszw3QT4N0MBBAfgKhvoejCyROYU0oZ+V4dCfy2+tqMv5oRr8AUbqw+xqy4AmvZX4t/Rp/D5X2VhrETfaLgPzDw2yqg4D+VUNqnacLzP/TExXwCQDdX2hOPXB6OuukTTVTTvzR94DKNpkC9QLynswMHTsgnm6MKxAd+hakzc/jutq5GO1W4v6wAK1BjBTIH4n1HzmD6xG709wZhKUqTgT6Z13s4CumqjL61g6IEqXyhAEfNwlYBxH2YFLaD2W4F2uYseeC38i9A9yCP9qIgK+KUVV8s+TD65/sWNjzsI7u+gY+ij6LtYLbb5j/V0H3S94ftFCkkwkUo3Md7siGgWI2BAmn1RML1QpVUfooWPbtiRt8N3+SI3hvtFwsU7hTAuvQvrv0K+JeiC1yksRSoF4jrKmcbxM+g/3gnuno6se/oW3j1lUn48k//Cb/sOqV3gfdZAVaAFai4ApkC8cUz+/H4zX1onTcQ21HKozJUNunPDooB6PrAZ4Cqsmuvr3JLbWUbctLZDYBfVAnat1tIlx/Eh8v49bw/wy3r5/xjQaZBDLyC3tCMbi54OmB3yppaUh8xK+7AobAb9eRB67/uX1HAbBDCI8albP8s+oXGN1kfa2fjEkO2ZSHhf6jPeuUa+6c3zfsNqwCDeHTowy9rHsOyRTmxVOG/zvxdnPPLK9C8pydaiVNYAVaAFaiwApkC8TXzJWS3zI0HccojEKeySX92UNRASECUA9cCU2TbXj+pVTv4BjPgWvtWU+nyCWRpRlbEl4egT9bXQTduRlzFaMut1ZmSiaX18fzwZ+qVqSBdv5mgGwn1DEDdIJXnn90+tSXvTZL1UZ6m2trOHZEmXwjOOw4KhaBv6olAcD6o86VK/qXqBBca6wowiEdHOAzip3Bg/yq80rEKG3c049cvfBYTHp+C9cnzPVHDnMIKsAKswDAUyBSIk9/Hu+NDUyhchcJWqEyaPzsoShCTICT3nUI0vIDs2+sntyzqxc7o6u3bbKXL90HbiMdWoOfny45EZ8T1GXObGynSkvSx58v+qRsJAdtGWwrEjeSUh0q/4GVWBfTSQNC+b9AG035mwk5s3SJc10XBoeUNCcpV6IvyT912MIgnKMzZFVCAQTwqYhjEjfxjc3HjzBxuf6vbyOBDVoAVYAUqq0DmQFytmlL1lzW9l+cELDoOHC2GV0lsB0mVG79VIKkAUMZwqxhhGwiO5GVNGfoSgLfNfvhGQ/kX34N0OUn62PMt/hnNjcw/C+gS6/rL5ljaj4Vpuq1J+LPVpRjyUDU9PMniX8jG8PwLNcMHrECMAgziUWFKg/g83CRe1jwQrcgprAArwApUUIHsgfhJuXxhz8HoC5lq1ZShwSQFbMsPqjoGCAkIkmEEoYUtyp4R16FLtRlOE4BKK2m40s9yly9U1qU9NeOqXlZU9qMvIyrQ9W8UvJcPlb20WztoB7Xt+RbQDKqIvZH6Z+or12xX+ljaD4Gwcsa7wfFDWlS6sbXUFf7nKeRJjm9ZL2vqTywsbRhe8CErUFIBBvGoPCVB/OD9uGxmDtOLiWvlRg1zCivACrACw1AgcyBOvs+6pld8UVMHbtpf+9QAZl3bm9g9AUJmaEhsaIAHZpWaEbdCkwl/0eXrwjcBpfJNW0FoQxB3XKp+5T6YYwftYHjs+Rb/gypizz5+KobaKGw9LNV/S/ulxozOi1LfcbLWpZufkS5fqDVqbcPacU5kBawK1AvEB7u7sGfPHvH7YGsLmptbsG23PN57NPk9H2tnKpRYEsQ/+B6+PPPjeHh3hRpjM6wAK8AKxCiQSRDft/MUnpjaJ9YMp8/b04/WD39yah8or65/AorkSiX6y4a0H4BwXT0cWeNZ71/W/IvE6I9Mfq7NClRDgXqB+KFtL2DBggXW38JNe6rR1dQ2S4L4e9/BF2d+Bo/xJ+5T68kFWQFWoDwFMgni5XWldrXMkA7/uHYuVLUlvz8qtEJtq9pqeuN190/pIT7EZC7PmL4fXJIVqJUC9QLxWvWvnHZKgnj3Y/j2Qzl8/YUmvH5oFw4MnCinCa7DCrACrECiAgziiRJxAVZAVyCIHRdPQRzzy616Wd5nBbKhAIN4dBxKgjhOYMeWS/D1h+Xa4hes2Rg1wCmsACvAClRAAQbxCojIJlgBVoAVyLICDAqClrIAACAASURBVOLR0SkN4rL84MAu7Oh8EVsPH40a4BRWgBVgBSqgAIN4BURkE6wAK8AKZFkBBvHo6KQB8WgtTmEFWAFWoLIKMIhXVk+2xgqwAqxA5hRgEI8OCYN4VBNOYQVYgdorwCBee825RVaAFWAFaqoAg3hUbgbxqCacwgqwArVXgEG89ppzi6wAK8AK1FQBBvGo3AziUU04hRVgBWqvAIN47TXnFlkBVoAVqKkCDOJRuRnEo5pwCivACtReAQbx2mvOLbICrAArUFMFGMSjcjOIRzXhFFaAFai9AgzitdecW2QFWAFWoKYKMIhH5WYQj2rCKawAK1B7BTIJ4od2n0bTHcdwz3nd4vP29Il72qc0yuM/VmC0KFB0HeTzeRTc0eIx+zkWFWAQj44qg3hUE05hBViB2iuQSRB/7IY+LJ8zgMGBM74itL9sTj/m3Njnp8XtuE4O9NXD8M+BZKEiCnnKy6NQ9CwUC8irY9cx6ml2nDQ0pexr9XJ5OK5qjNoswnXyQTt5B0G2V19vS/cPyn6M/35+0H4+X9Dsx6mm0tWXI5VeQLEgfVUu2fXNQeQn6pfUv5T6aOM7vP6pftZma2pXm1a5FVYgrACDeFgPOmIQj2rCKawAK1B7BTIH4qeGgOnndqO7Kzrz3X3gtMg7dTJJqCKKxSJcAkgBoXSs6iiQzSGvSDwEuhB1o/WL8E0oU9ZtAJpkQ9jxoFuBrIQzCefFouvdGCjwDer75kP+Jfkf1Jftu3DoxiOf9lPsBOJ55PMeWAuw148BAeKO6+uk+qn8Vcdh/ZV+gX+qPEL9U+CfrE95/fNb5R1WoGEUYBCPDjWDeFQTTmEFWIHaK5BZEO89FAVxSiNITwZxKaQA3giAShCkcAEfTg0QVMNgr69y47YW0PRmqSX4W/JD7afLj/c/qX6c3ypdgrhDNw9050C+5R0B8+pGQoG4qhG3teuX5N9I8+O80dOjTyTUPRk9rRBPTJwCCv5TC7op0OuX2vfqazP2oacvompRsy2fzjiBAymfmJTrXynfOW+sKsAgHh1ZBvGoJpzCCrACtVcgcyDed+QMpk/sRn9vEJaiZBnok3m9h6OQrsro21IgmC8U4OS8Wd8QCAcW7PWDfPueArmA3EScsGorBOWehVD70frhGWOZH+9/XH01w233OkiVoSmOSwBeEE8V8gU5a69gtBYg7j+tIMdS6ZO2f+aMO0ExwbDxRMILJ4o+sQiUit3znoSIGXvSUYU9eRXEeZVzUFDlChQOFYQayfyEJwIj8S/Wcc4YqwowiEdHNosgPnj0EI4eS3d9i/aosVNOntiPrp7O4Nff39iCcO9HjQKZAvHFM/vx+M19aJ03ECsg5VEZKpv0ZwdpBbI0K5oLZn01EFJ27fVVbtzWA+HQjGgOeUWxFQPxOP8rBeJkh0JSCBClTdUFoZvRP//pgiaLXT+7PgGIyvzqgbjNvouCo+L0Pf9UZ6k/oRsBrYNpdi11hX6RJzXKmM0/HeYr7J9qlrdjWgEG8ejwZg7Eiwsx9azz8bW/mo2t8ZfAaEc4RSjQseEf8PmHfsf//b+lwWQYS8QKZFmBTIH4mvkSslvmxv8vRHkE4lQ26a8UCArQE5BEAKaDTmDVXj/It+8FoEQzomK2NQRdIwUtrb7V/6B93z9RLu2MsZoRB4puAQ7FgiNII5vqBkbFgsut35q/Y9cv8M+vH5o11vqnLIXGJ6ivsiUop+2fxb5viHbi7Acz1qHiSQch373C3njQzUfecVAokMbqz+JfaPwq7J9qlrdjWgEG8ejwVh/Ee7DiwvMx6VOzsU00bx4bPn2wCvf+7cX45heeRrHEe1BHN67AgofXozNzE+dm/8xjo78VPiQQ/9eZ/4EnOlbhlY5V2HTgQIVbYHOsQHUUyBSIUxePd8eHplC4CoWtUJk0f6VAUI/XdgrVAXHho1hFRIe4ONBSZZJAS68v98P+x9VPC6ph6JY6h9MUiCeNQSn9Rfy5MhCCVb1/XgFLfrR+2v5Z7Cs/xDZOPzU+ocLJByHf9eJFuK6ciacXY83QmOgTAdW/Cvunu8T7Y1aB+oH4GZw49C42rV2BJc8twmJ3Jdq27kJ3CdCs1SBUH8T7sfqy8zHpM3PwluiUeVxeT99/8CZMGv8TbBgqr371apn9M4+r1zJZliB+OdZm7galuv1m66NfgcyBuFo1peova3ovxwlYdByxUkjofTkRkaC90Jl6rE1QkhAbgKOZb4Y+pMtXoBb1P6l+UkfC0C1Lh9NqAeKBXsPVJ6l/Uh+lnyhdpJVl1Frfw9MvmMmOadcG4hQbHiqu62vzT79RHJ5/oWb4oGEVqBeIn+lpx6pnF2DpujfR0dmJD3ZswarFzXh+/ftIfqZZ3eGqPogPoe3q8zHp7+Z6/97N4/L6l10QN/tnHpfX37S1GMTTKsXlsqZA9kD8pFy+sOdg9LZWrZoyNJgkY/LyhT6ICVCSK1dUB8TVy4HqZUB1HPcyXlK+AWoR/wNQk6Ef5SxfqGZflc46KMaFpoTRkmqWNyOerv8E6uX1z7Qf87JmYoy41ITWqteLKsX8rQXEZYw4hUTJ87RYzsuaeqOWNvz2eYcVAFAvEO/a8jyal27DEe0h5omONixobsWO4/UdmuqDOLBxygWY9H9+iQ6vq+axSN42H9eOPx9f+8MLxG/S+Iswe42hzZtPY4pWRpVV20n/+gw6tSqn9m3Dguun4dufvggXf+pKfOfiOVi5tQ/BMGzCT//ofBQeacH9n7sUV/z7HLza2YFFF16Ny/7yO3i4eS+CK/AZHHyxGYUvX4crP3kBJn3sUjj/djfmPfcBzEux2T/zWHMROLIK38t/Eh/7i3Pws9dNS6GSqQ4YxFPJxIUyqEDmQJw0mnVNr/iipg7ctL/2qQHMurY3UUYBOubLhMaqGD6Iq5jgSr+sGQElbd3ykh/0oe4lL68X778H4lr/h/fBmzB0S7HDaXZ9o0BaLojb+h/54FHZ/Uunb/yMvDr9lM5qJl2lG1srJNMqNNoHnWgFlNBdYHT8I/2PnF9lhs4Y7vLh2FSgPiB+Ckfffxvv7O7WABDA4W14oXkJth2sr9a1APHNN1+ESf/8NN73umoei+RD2/Hi/BVYQb//+jEus4H4oXasfmIJljyxBL+85EpMGn8zZv1cHlPakgXb4X/q7vg7+MU/XYCL/r+7MGfmYiyZPR8zv3ApJn3iNjy/Q+G1BHHnnNn49ey5uOsvzsf1/3YfHnloIeZ85VJM+tSD2KTWQ3hvCW7/4/PxzS/+FM88sQwr5i3CvEuuxYXjr8bjbWGANvtnHodGvO02fGLcOHzoQx/ChNm7QlnlHDCIl6Ma18mCApkE8X07T+GJqX1izXD6vD39aP3wJ6f2gfLq+ufPQNMsevgXwHFdPSzd+Gj3v3TvaLobeWNc1DjVZXwi7wgkdYDzWYHKK1AfELf3o//dtViwYC066hybUgsQtytQIvXVJnzLBuJalaTQlGMLZuDC8d/Fs+8q6AZw7DXM+uvzcdWdb3iWJIh/72d7xHH79G9h0gVLcRTAmZcexaXjv4Nn35VF+5vvxaTxt+B5dTdByUO78OJ/z8ei1SO4mzq+FbOvPBtfOO+7WLhL89XzcLgbBvHhKsbls6JAJkE8K+LE+eGv9qFCC9Q2rkLG0ke7/0ly1r1/6nwQsefD+appUs84nxUoT4HMgPjgXmxa0oznX+6MhDWU17Pya41VEN9x77WY9Gcz0dZ5AAf83/tYdP75mHTxShwTkkkQv/MJubJIx0+ux6RLWmTeK3Nx5fjr8dt2qe2plodx8fhv4v5fd6J/5Lxc/oAl1GQQTxCIszOrAIN4ZoeGHRudCgSx4zQTn3cKxouZo7NX7PXoViATIH6qB9vXLkbzCy+js86z4TSaYxXE3/nRVX68uYohV1s16w2kB3EMduDZL18qbX78Mnz73+7AvTfNwwsvdSFLC7cwiI/u/6Ma2XsG8UYefe47K8AKNIQCdQfxM8fw/oYX0Lx4DbYfrXN4oTfiYxnEJ336Xixe8xq2mL8tXZArRw4DxEmvwR580LYeq55sxq/ufAT3TbgCXxt/BWavqvMbt9q/XgZxTQzeHVUKMIiPquFiZ1kBVoAVGL4C9QXxE9j36nIsWNiCNw+FX+4bfk8qV2OsgrgITfnkLGwNlkixiDZMEDctnO7AU/nz8fUbXtZWVzEL1faYQby2enNrlVOAQbxyWrIlVoAVYAUyqUD9QPwkDr25CgufXY4t+09kSpvRCuJ7Z9+KSeP/Cy/KYO+Ipsea78WF46/B3Je1m57BHXj++vsw6+kPvPLpQbzr6Z/gO5+fjZf9ZVnIRCea/+18XHhNmzfDHnEjOaF/Gx69+mxMOH8qnnt/5MHnDOLJknOJbCrAIJ7NcWGvWAFWgBWomAL1AvFjHW1Y3PwsVrzagX3792O/9jtyrL4hKlkB8aOvrpVLF/rLF34Nd/7AW85w/gpsag/fwAxteBxXj78Q37nuN3jeW9JwibsrePn1+Nt48nMXYNKnb8HD//0cljz2NGadfTkmnXUjnnpNwXl6ED+1dT6u/5/n46qJs9Esli9cjF9dcxMuGX8x/uuZQ+Wfo7x8Yfnacc0xpQCD+JgaTu4MK8AKsAJRBeoF4vs2LcKCBQusvzU71ELVUX9rkZIVEN9+txP7ciW9ZHnXvMOGHH1on30/pv7Nxfia95GfSRetgP6FjVN7t6L529Nw3acvxMV/dhVumjQLz687pK3nnh7EgUHseeGXuG/CtbjiExdg0lmX4Or89zHrsbdwtGT4i+G2eXikBbf84ydx1me+jEe2qRsEs1D6Y54RT68Vl8yWAgzi2RoP9oYVYAVYgYorUC8Qr3hHKmgwKyBewS41tCkJ4hdicXcnuno60dVf3xu9hh4M7vywFGAQH5ZcXJgVYAVYgdGnAIN4dMwYxKOajOYUAvHPP/Q7/u//LXVHc3fY9wZSgEG8gQabu8oKsAKNqQCDeHTcGcSjmozmlONHN+KVjlX+b9MB+bGi0dwn9r0xFMgkiB/afRpNdxzDPed1i8/b0yfuaZ/SKI//WIHRokDRdZDP51HgyZnRMmRj0k8G8eiwMohHNeEUVoAVqL0CmQTxx27ow/I5AxgcCN4Eof1lc/ox58bQGkpWxVwnB/qqYfjnQLJQEYU85eVRKHrViwXk1bHrGPU0O04amlL2tXq5PBxXNUZtFuE6+aCdvIMg26uvt6X7B2U/xn8/P2g/ny9o9q2SaYnqy5BKL6BYkL4ql+z65iDyE/VL6l9KfbTxHV7/tK7WYNfUrgZNchOsQEQBBvGIJNn8smbUTU5hBViBMa5A5kD81BAw/dxudHdFZ767D5wWeafkp8FKDE0RxWIRLgGkgFA6VsUVyOaQVyQeAl2IutH6xZSfKg9Ak2wIOx50K5CVcCbhvFh0vRsDBb5BfeUxQv4l+R/Ul+27cOjGI5/2U+sE4nnk8x5YC7DXjwEB4o7r66T6qfxVx2H9lX6Bf6p8uH8K/JP1Ka9/fqu8wwo0jAIM4tGh5hnxqCacwgqwArVXILMg3nsoCuKURpCeDOJSSAG8EQCVIEjhAj6chkA3GAR7/SDfvmcBTW+WWoK/JT/Ufrr8eP+T6tu9DlIliDt080B3DuRb3hEwr24kFIgHdex7dv2S/Btpvt2XcGqaJxIFFPynFnRTELYQf+T5r83Yh56+iIpFzbZ8OuOom0IvP/mJSbn+xXvOOWNXAQbx6NgyiEc14RRWgBWovQKZA/G+I2cwfWI3+nuDsBQly0CfzOs9HIV0VUbflgLBfKEAJ+fN+oZAOLBgrx/k2/eiICnihFVbISj3LITaj9YPzxjL/Hj/4+qrGW6710GqDE1xXALwgniqkC/IWXsFo7UAcf9pBTmWSp+0/VMz7g4KoScWxhMJL5wo+sQiUCp2z7MrZuxJRxX25FUQ51UuaL9YoHCoINRI5ic8ERiJf7GOc8ZYVYBBPDqyDOJRTTiFFWAFaq9ApkB88cx+PH5zH1rnDcQqQXlUhsom/dlBWoEszYrmgllfDYSUXXt9lRu39UA4NCOaQ15RbMVAPM7/SoE42aGQFAJEaVN1Qehm9M9/uqDJYtfPrk8AojK/eiBerv0AlLUuJu+GbiJkcaFf5EmNMlVj/1SzvB3TCjCIR4e30iC+rmNxtBFOYQVYAVYgQYFMgfia+RKyW+bGgzjlEYhT2aS/UiAoQE9AEr0oGZ21JNv2+omtyphvL4a6QLAfgq6RgpZW3+q/zBdhJcpVUS7tjLGaEQeKbgEO9QNBGplUNzAqFlxuVWPB1q5f4J9fPzRrrPVPmQqNT1BfZcsZ87T98+qbNxLGE4uofpUDceUv3XzkHQeFAmms/uL6r/oX1/8y/VPN8nZMK8AgHh1eBvGoJpzCCrACtVcgUyBO3T/eHR+aQuEqFLZCZdL8lQJBPV7bKVQHxIWPYhURHZLiQEuVSQItvb7cD/sfV1+BXJJyYeiWpcNpCsSTLJXSPx509f55LVQBxCncxr8R8EJJZGtx+qnxSeq1kR/yXc8rwnVdFBxa3pDixMOhMdEnAmr8Kuyf7hLvj1kFGMSjQ8sgHtWEU1gBVqD2CmQOxNWqKVV/WdN7OU7AouOIlUJC78tVYEZcDqeE2AA8k0AqXb4Ctaj/SfWTTrIwdOt9CIWmqIMS5kYC4oFeaWPE04Ky1Efpp9wnKJd/w9NP1VJ2IlsbiBP4hwrqmlv8C9kYnn+hZvigYRVgEI8OPYN4VBNOYQVYgdorkD0QPymXL+w5GH0hU62aMjSYJFTy8oU+iAnIkStXVAfEg5cD1cIbAlBLvGxXOt8AtYj/AajJGd9yli9Us69KZx0U40JTwmhJNcsDcaVXwsuK/vKJw+2faV+toBKekY6/EQhrQmvVl7wnCUG0rCtjxCkkSp6nZb2sqTdqaUN5yVtWgBRgEI+eBwziUU04hRVgBWqvQOZAnCSYdU2v+KKmDty0v/apAcy6tjdRJQE6kRjgMGj5IO69PBm8LBiYt4NkkG/fC0DYz/dgWW8zfnk6qqXg0PsoT55W2FDWDBCP+O+1r/V/eB+8CUO3bDWcZtc3CqR2/eL00We0o/2PfPCo7P6l0zcZxJXOCV/NtEIyrUKjfdCJbsqCAbaOf6T/DOLqHwRvUyjAIB4ViUE8qgmnsAKsQO0VyCSI79t5Ck9M7RNrhtPn7elH64c/ObUPlFfXPw+qw1/tlMAcgHZdPSzd+Gj3v3TvaLobeQ3S9XGqy/hE3hFI6gDnswKVV4BBPKrpqALxXA7gH2vA50BtzoHofxdVTckkiFe1xxUwbr7k5x9XwHYtTPj+qtAIta1F4zVoo+79U3oWhx82UwN5uIkGVIBBPDroDOIM93xzw+eA9RyI/ndR1RQG8arKy8YbTwEZxqNm4vNOwXgxs/EU4R7XXwEG8egYjEoQV93Yswlf/MoD+Mtpa/HUup1Ytzv5uxqqKm9ZAVYgRgH1xCEmu1rJDOLVUpbtsgKsACuQEQXqBeKHtr2ABQsWRH7NS1/H0TprM6pBfPNyfOzsR3F3e51F5OZZgbGkAIP4WBpN7gsrwAqwAtlRoF4gPth7APv37w9+u7Zg5cJmLHm5EyfqLM+oBvF31uCvzn4Y07bWWURunhUYSwowiI+l0eS+sAKsACuQHQXqBeIhBQYPYlvLQixe246jdX7nnvwa1SC+fxO+ePYDuHJ14lq+oSHgA1aAFSihAIN4CXE4ixVgBVgBVqBsBeoO4qeOon3tYixs2YaDGWHHUQ3iva/jwrMfwKQXjpV9TnBFVoAVMBRgEDcE4UNWgBVgBViBiihQbxA//PpSNDcvQutr72JPdzZIfDSCeGdXD3bv6ULbb5vxp+fMw0Md0Q/fVeSEYSOsQCMqwCDeiKPOfWYFWAFWoPoK1BvEj+7chI0b2rBm2XNoftbFps76r/IxGkH8D75cwEfOLuDTUxbj5+/UO8q++uctt8AK1FQBBvGays2NsQKsACvQMArUG8R9oc8cx3vrn0fzki046CfWZ2c0gvjqzR1oWf8Wfnbfk/jYZUuxsqc+2nGrrMCYVIBBfEwOK3eKFWAFWIG6K5AZEAdwuvNlLGhejXfrPCk+GkHcP5GObMHEsx/AN1oG/CTeYQVYgREqwCAeCHho92k03XEM95zXLT5vT5+4p31Kozz+YwVYAalA0XWQz+dRcFkRViBegfqA+CCOdHbg/YMGce/bjIXNLWiv83uGoxrEj27FeWc/gK+5dRYx/pTjHFZg9CnAIB6M2WM39GH5nAEMDpzxE2l/2Zx+zLmxz0+L23GdHNSXDYOtA8kqRRTylJ9HoehZKBaQV8euY6nr2XOkBbv9HLzsOLe09CJcJx+0k3cCX/xSyk+LXd1fv7y+U8q+Z1d31rRnHuum/f0Y/6quX5L/yq+Y8QVgHz/v/Ejhvy9BBnaKBXke6cOZAbfYhYwpUB8QP4mOtmY0r9kBHcV732lB87Mb0VnnOZVRDeK71iN/9gO4ri0D60Bm7Fxnd1iBshVgEJfSnRoCpp/bje6u6P/S3QdOi7xTJ5NkLqJYLMIlSMkX4BbpWNVRoJZDXpG4AZ5UN1q/6H+qXICc44oyqixt0/5JeMrDcWU7BXHjoG4UPCueT/m85qdqwPBXJattaftJIAsgwb5op4R/SpOw/pXSL8n/5PEFbOOr1IM/rnH+ByV5jxUYHQrUB8SBwc5XsKT5ObRs3o4POjuxq/0VrFjUjKVbujBUZ+lGNYhva8Gfnj0Ld75eZxG5eVZgLCnAIC5HU4F476EoiFMaQXoyiEtbAkjzBR+gvVQxI06P8wnSBT7HgKe9vjejWvYUpA0kXTh5AnPtjKaZWbqJ8G4mQpgf46/ev5xurKjbt7WvPREgIyXtez6W8s8rUjv9dP9l/0Yyvp77iPNf5cdv0zyRKKDgPxUxxj7eMA2O90RHf+qjzf6LukXNtnz646ibTi/ffCLj+ieYOj/K9a+k85xZJwXqBeLAEHo+2Ia2lqV4ftEiPL90FTa8tQfHMjCRO6pB/NUV+OOzH8M9/In7Ov2L4mbHpAIM4nJY+46cwfSJ3ejvDcJS1IAP9Mm83sNRSFdl9K0dpDxQKxTg5LywjxjwtNevDIj7s/G6w9q+mnWXUGyfLQ+xlV9X9c8nKz9H7ijQ0qjf7L95bFigw5L+eeWrqV/4RsMC4iMYX9XdOP9VftxW1MvFPfHw9PfzXQ+sjTGOM07p3hMb8eTB1fsuK8n2KdxJzvwXCxRuFcB62D+z/Qr4V8p3zquLAvUD8bp0N1WjoxrE92/G2V95AJ+9bxte+eAo9vXV+/lCKsm5ECuQbQUYxIHFM/vx+M19aJ0X/yY45VEZKpv0ZwepAFTDMBmAirJrrx8TY6xm11Xl2G3QfmwRb9ZTTmq7wQ2DqlASlJPse6AVmjE3YK6kfXJC2oj1z/OzmvolgzjNSucgysX0J86/QGbtqYlKTNxa9C+6KDgO5KxzCv0T29AKWPom+h17Ptr808e/wv5prvJu/RRgEI9qP6pBHEN44/mF+OzEB0Bri//1nM5oBzmFFWAFhqcAgziwZr6E7Ja58SBOeQTiVDbpzw5aGogIiCFA0kEksGqvH8wGq1houQ3qld7T2o8raPhDYBWaQTfyw2aS7KcArZL2o6ErEf88h6qpXxoQ958mxPQnzj+lZ1K+KhfeVkD/sMHSR7a+iTQZkpJ3HBQKrhaeZfHPKy9vrFKcH6U94twMKsAgHh2U0Q3isj+DvUfx5lu7sH538sRUVAFOYQVYgZACDOJSjuPd8aEpFK5CYStUJs2fHaR0EJH7TqE8EE/jQ7SM3n40l1KE3zk9BjgXxLPLAsEqLxETSfZlfjzIRkHbbCLRP6+CXf/gRsa0m+44yX+9/3J/uOOr/IjzX+Xbt3r7thJJ/tvqlEizgbgoXoTrypl4euE3l1OhLxb/GMRLCDw2shjEo+M4FkA82itOYQVYgbIVYBCX0tXsZU0vwFrAluPA0WJo1SDGgZgf8qAKDmtrAzH9ZcoAVP0Zd1orWvcvFr7IkST7tnzjRqSk/RT+eXrUTj/d/zBoljO+ajjj/Ff59m24fVHGe1lWrvWdQn/NcFykv1/ENlYUG+4XoB09vMnmX1S/kjdqIdt8MBoUYBCPjhKDeFQTTmEFGloBBnE5/LQiCq2M0nMw+kKmWjVlaDDpVCm1PJ0BIt5soP4ym7IeB2IKxH1Q9l6KU/WStsKu/7IerXChz1jq0KQsGWkKvrzlD30/vOKl7asZd/UyofmynjYjbrVv+CLatKV57VhilSurn+l/mvEtdX4ozeP9D0rY90rrnxbEpaa0Dr4ezh9pUZ0LGnkLffMUcjWClzX1Ri1tRPzghEwrwCAeHR4G8agmnMIKNLQCDOLB8M+6pld8UVMHbtpf+9QAZl3bGxSM2RMgYoZ2xD6a98BIn3H27JYE8Yj9BGAK+VpieTsr9BjwJsoYoSvkjw9PJewLPxLyS9lP41899fOeCAQx9dHxLX1+BAMVN/5Bibi9UvoaY0kmSmlK56W2wE2kRWtdujnRPhhFN32hJXai/kWXL9QatbYR8YQTMqwAg3h0cBjEo5pwCivQ0AowiAfDv2/nKTwxtU/MjNPn7elHs+RPTu0D5WX6T0CLBZJzxguXme5EHZ3Lun5Z8098CTS64k8dR5CbzqACDOLRQWEQj2rCKaxAQyvAID52ht8PFVGhAWo7drpY1Z5kXb+6+6fOJxF7brzIW9WRYeOjVQEG8ejIZR3E3Y07A6frBAiBA7zHCjSAAnX6d5ZrAGm5i6zAGFIgiB2n+PG8Y345dgx1lbtSMQUYxKNSMohHNeEUVqChFWAQb+jh586zAqwAK1A1BRjEo9IyiEc14RRWoKEVYBBv6OHnzrMCrAArUDUFGMSj0jKIRzXhFFagoRVgEG/o4efOswKsACtQNQUYYq1d5gAAIABJREFUxKPSMohHNeEUVqChFWAQb+jh586zAqwAK1A1BRjEo9IyiEc14RRWoKEVYBBv6OHnzrMCrAArUDUFGMSj0jKIRzXhFFagoRVgEG/o4efOswKsACtQNQUYxKPSjgjEu18H3ntS/mgfwLqOxdFGRpDCyxeOQDyuygqUowCDeDmqcR1WgBVgBViBJAUYxKMKlQXiJ7qADRcDC8eHfxsuxivFX0YbGUFK9UG8G7/4wQTkLnoQa4Wf5vEInI+punPBFPyPr37R/+Umno/b3ogpXPFks3/mccUb9Aya7ZjHY63davWnBnYZxGsgMjfBCrACrEADKpAJEB/qwqtuMxav24WBDIzBsEH8zClg7YQwgGtA3rvi7wEqU6G/6oN4P56ePgG5Sx/BeuGzeVyhjmhmejraMG/ZEvl78laMrymIm/0zjzVHK7prtmMeV7QxzZjZjnmsFeVdqQCDeHAmHNp9Gk13HMM953WLz9vTJ+5pn9Ioj/9YAVZAKlB0HeTzeRRcVoQViFeg/iB+GodfX4HmhWuw81i8n7XMGTaI75oXC+H+DDmVqdBf9UH8JBbMmIDcFY9hs/DZPK5QR+LMvPEz/HFNQdzsn3kc5+hI0812zOOR2o+rb7ZjHsfVa+B0BvFg8B+7oQ/L5wxgcOCMn0j7y+b0Y86NfX5a3I7r5EBfHQz/HEhWKaKQp7w8CkXPQrGAvDp2HaOeZseRFuz2c/Cy49zS0otwnXzQTt4JfPFLKT8tdnV//fL6Tin7nl3dWdOeeayb9vdj/Ku6fkn+K79ixheAffy88yOF/74EGdgpFuR5pA9nBtxiFzKmQL1B/ExPO1qeXYBV7T0I/levr0jDBvHNTjKIU5kK/VUfxIElD3wROecJbPN8No9x+g3cdvkE/P49Leg1+tXx7PXITbwJPz8YZBzb/SKmz7gBf3vZRIyffAn+4fv349E3D8P6nCABxHctuhG5iXfg16Ebtw7ce90E5O5/KWgUwNChLXjwgZvwN5O/go9cdBE+98OH0VTsjZxrZv/M45DRI6vwvfwn8bG/OAc/e30wlDXcA7Md81jZO927HfMevR3/7FyAj3796/j722bgwVf34YQqAGDfC7cgN/EWzN2xEXfedQU+ftF5+Mubfoh7N3XhpFaOds12zGOjOB8yiMtz4NQQMP3cbnR3RWe+uw+cFnmnzLMtcvoUUSwW4RKk5Atwi3SsCilQyyGvSNwAT6obrV+EMiFAznFFGVWWtmn/JDzl4biynYK4cVA3Cp4Vz6d8XvNTNWD4q5LVtrT9JJAFkGBftFPCP6VJWP9K6Zfkf/L4ArbxVerBH9c4/4OSvMcKjA4F6gvix/Du2oVYsOJ1HIn+t143AYcN4i/+RzKIU5kK/dUCxFf89CvIfbsJ73g+m8fAabz06IXITbobz+s0iIN49LYJyN3SjA9Uf7vX4arLJmD8t3+IHzQvxJxFv8C3v3sBcpNuxCzbk+xKgfiJN/H9676EcVfeiqm/acajzz6Jb33nPOS+diN+ZrRr9s88Vl0R27bb8Ilx4/ChD30IE2bvCmUN98BsxzwW9k5ux903/AdyF16Fy+b+BrMX/RI3TbsIv/vVb2Dq1uBuRIL4t/Efd12HS+c+g581P4pJ3zobufO+jQffD9/ymO2Yx8Ptx5gvzyAuh1iBeO+h6P/YlEaQngzi0pYA0nzBB2gvVcyI0+N8gnSBzzHgaa/vzaiWPQVpA0kXTp7AXDvNaWaWbiK8m4kQ5sf4q/cvpxsr6vZt7WtPBMhISfuej6X884rUTj/df9m/kYyv5z7i/Ff58dvoEwnXH0ClfwEF/6mIMfbxhmlwvCc62pMa9TTHr1fUbMunP4666RRlqumf7wTvZEiBeoL4wPvr8VzzC9jSNZQhRYBhg/hrU5JBnMpU6K8WIJ7G1ZNbf4qPTzwXUzZps8LdLs796gT864JO38SpjpW4Y04Tlh3wk4Bjrbj4/An43G/e0xK93QqBePeaH+H3Jl6HmZ0aM/RvwvXfnIBPzVFz/dHmE1OOb8XsK8/GF877Lhbu0mwnViyvwMDG+/CRiRfA2aA9ezi5HT+6bgL+x90roWIBJIifi6+vOuw3dGZPMz7/1Qn4X/N3+Gm8U4YCDOJStL4jZzB9Yjf6e6MPMAf6ZF7v4XT/KOwg5YFaoQAn54V9xICnvX5lQNyfjY85V9Ssu4Ri+2x5iK18O6p/Pvn5OXJHgaBG/Wb/zWPDAh2W9M8rX039wjcaFhAfwfiq7sb5r/LjtqJejsKNvJl3AdxqDBVIqycirgfWKj/Oqpbu2RVPHly977KM2X6xQOFWQaiOzI9rvwL+aa7ybjYUqBuID+7FK0uaseSVTiiM63rteTSveAs9dZZm2CB+aAOw8A9LwPgfAlSmQn9ZAXGc3ITrJ0/AJ362GepW6uiqH+D3Jjp4cHe0s6dO9GD/wS50HqDfRtx8+QSMf/iVaMEKgfhrTZchd/F9WCjaU+2+h5/eMQG5H7o4Gm05kyky1McMxQH2v/syVryx2wDxGzC7S+9GO+66agJ+78F1eiLvD1cBBnFg8cx+PH5zH1rnxb9TT3lUhsom/dlBKgDVMEwGoKLs2uvHxBir2XVVOXYbtB9bxJv1lJPabnDDoCqUBOUk+x5ohWbMDZgraZ+ckDZi/fP8rKZ+ySBOs745iHIx/YnzL5BZe2qiEhO3Fv1D7afQP7ENrUDItkwX/Y49H2vsn+Yq79ZPgfqA+BC6tixF83NteF/7L33UgjgN31s/jgXx3eu+UdEBzgyIYxBLZ34VuW/OwgYxB9aPBTO+gtyUJrTrPR7sxG9m3YA/OX+CvzyhWqrwIz99WS8p9ysE4huf+HqkPdVu7vuLoU/QR53ITsr2316L3MQfYaG6Y41xTcWIzwvdYdhj52NMcHKcAgziwJr5ErJb5mr/axuCUR6BOJVN+rODlgYiAmIcuBaYIdv2+sFssIqFltskb1S+1r5KMreGPwRWoRl0Iz9cPcm+zI8H2RShKUb7Ef88h6qpX7z/Wv+Fn8MfX6VnnP8q37719I28LKxeuk2hv92wPdUYC1FIpMmQlLzjoFBwtfAsTR9l0Ssvb6wq7J9qg7d1VaA+IH4Ury9txvOb92BwcND/dW4apTPiagRb/yUK463/MqY/6HN8wwyMn3gJfrz9DDC4Ht+6aAL+96/eVYoAOIM3f+3gdydegLOfXIIlmzZh1av0W4RvfmMCqg3iuck/xCzRnmrX227v8p/EaM5mcpdBPAPDwiAuB+F4d3xoCoWrUNgKlUnzZwcpHUTkvlMwZoQ94/b6AYin8SFaRm8/mkspol0T5PQZTht8+aaS7Mv8eJBNBvFE/zxfqqlfvP96/+X+cMdXSRnnv8q3b1X7cS/zptDfbtieGnsuFOG6LgoOLW9IUK5CX5R/WugSg7hd2zGUWk8QX7BgAczfqAxNUefDlpuiIL7lpjEN4hh4CZd/TcL34KsP4qyJl+LuUDjyPjz83QnI3boAQdQ4CfY2vn95eSDetex7yE2cil+EZn7fwZ1XTMD/nLVJjQZEaMqFD6A1HRb49bK2I0NTbsfTwXuZ4gan8521WLi5ww/l4hnxKo4cg7gUt2Yva3oB1gK2HAeOFkOrhjkOxPyQB1VwWFsbiOkvUwag78+401rRun+x8EWOJNm35Rs3IiXtp/DP06N2+un+h0GznPFVwxnnv8q3b8PtqzI0lvIvhf6qkhhN7cC2axsriiEPldXDmyz+hWwMz79QM3yQWQXqA+IncezwARw4EP4V1z83OmPEE0Z3bH/i/jiaZ3wZue8+g9/OvQS5qx7DqyHwPYonvz8BuRt+iXbtFa7B93+Ff54YA+I7nsRfTvwKbtikVdA1fuNn+PjEr+Lyl4K3CU598BT+aeIETFi83y95dPUP8XsTL8Udb2nLupxsx+wHfoTrV45gtZP+bXj06rMx4fypeO79GB99L0a+o17W/NZ6/WXNdtx17QT87t0tUHzOID5yrWMtMIhLaWhFFFoZpedg9MRXq6YMJcRQlV6ezgARASHyMb758mMciCkQ90HZe3kudnCNDGE3p16WoxUu9BlLHZpURSNNgZO3/KHvh1e8tH01467at7wsWNK+4Yto05Y23NCeMDqqntu24f6Z/qcZ39LLF6o248Zf5cdtw/6pFUrCM9LxM/rKqtSU1sLXw/lVrr9VY6XJJ87PPIXkyH6W9bKm3qilDb993hkVCtQHxO3SjOoYcQBvvLkd13/nrtDvjTfbx/aMOAAC3nFfvRL/+9oJ+PPH34B5hX5/6a34g4lfxt9Nn42HFj+Lh5ruw+dv+i6+dHUMiJ/YjBtoucOb7sODL3hf21y2BGv3eYR/uhOP3Ppl5C5ycNUvf4vZv52Fc674EnKXzcBStYQInWIn3sC0a76E3OQpuG5+Mx5bNA/X3/I15M6/Cve0J8KC/SSl1AouXxjfiJZzcjum0/KFF8nlCx99Lli+8NZtCsODdcSrESPeNu3TGDfub3D3Fs2vRtplEA9Ge9Y1veKLmjpw0/7apwYw61rtbjGoEtoTIGKGdsQ+mvdmAPUZZ89aHIjZ7ScAU8hDBWcE4Dnk9A/6WKHHmKUUZby6ej99eCphX/iRkF/Kfhr/6qmf90QgiKmPjq99/BQoBwMVN/5Bibi9UvoaY0kmSmlK56W2wE2kRWtdujnRPhhFN32hu8yof9HlFbVGrW1EPOGEDCvAIB4dnGGvmhI1EUoZ2zPiAHpX4ILzJiA38Wu47Q0TwwGcPoJ1z96HLziTMP7CC/C3036CX7z7OqY7MSAO4PA7zbjqu5fgj7QXPK9eF6yFfbqnHT9/5Fb8wxVfxUe/8U18/r+ewJI92sy3NwJDBzfj/vtvwl9N/jI+cvHX8X++/wBmv34wcrMQGrCkgyMtuOUfP4mzPvNlPLJtBECf1I6WTx/0+cWj05D/Fn3Q5yJ8tsQHfSoP4nsx5+xxGHfWFKysTXe1nmdkl0E8GIh9O0/hial9YmacPm9PP5olf3JqHygv038CWiyQnDNeuMx0J+roXNb1y5p/4kug0RV/6jiC3HQGFcgSiGdFnpGAeOGhx/0ZcdqnvzEP4lkZOPajOgqcXoUbPzYO4yb9Ekeq00L2rTKIZ3+M0nroh4qo0AC1TWugwctlXb+6+6fOJ/GhJnqiYn60qsFPIO5+RAEG8Ygkw/+gT9REKIVBPCQHH4w2BXY+jP87bhz+uRBalHK09WJk/jKIj0w/rs0KNIYCQew4hTXlHYbwxhj3kfWSQTyq30hmxKPWeEbcpgmnjR4FTiy5Bh8Z9ye4rc0SdjR6ujEyTxnER6Yf12YFWAFWgBWwK8AgHtWFQTyqCaewAg2tAIN4Qw8/d54VYAVYgaopwCAelZZBPKoJp7ACDa0Ag3hDDz93nhVgBViBqinAIB6VlkE8qgmnsAINrQCDeEMPP3eeFWAFWIGqKcAgHpWWQTyqCaewAg2tAIN4Qw8/d54VYAVYgaopwCAelZZBPKoJp7ACDa0Ag3hDDz93nhVgBViBqilAIH7q5GH+aRoQiFdSE1q+sJL23I07fXvwAKGS9tkW/3vgcyB8DtTr31muav/zs2FWgBVgBViBTCjAIB6+4BKAMIhHNWEwY00a+RxgEM/E5YqdYAVYAVZg7CnAIB4FLAbxqCaNDGHcdz4fGMS1a9+h3afRdMcx3HNet/i8PX3invYpjfLS/hVdB/l8HgU3bQ0uxwrUVgE+R2urd6O2xiAehQwG8agmDKOsSSOfAwzi2hXysRv6sHzOAAYHzviptL9sTj/m3NjnpyXtFAt50NcHnXJAvFhAvty6KMJ1ZNvUfi7voFBM8lbmK59FPfpyYtqK6cyjYvbL1cd1xJio/oW2ZQ1Uyo5ntJgajwbsekZHZGy6xSAeBSwG8agmjQxh3Hc+HxjEvevfqSFg+rnd6O6Kznx3Hzgt8k6drMHFslzQBDzYzcNxiygWiyg4OeRyDtLdD8g6xaL8lHmlQRyokP2R6FOUPrh0o5QvwPWOU96r1GDwuQlWYGwpwCAehQwG8agmDKOsSSOfAwzi3nVPgXjvoSiIUxpBehKIq1lGNdsanm0sopDPIecUUPBnrQmaPQdKzNj6ZSwz3q5Pkcq+Mkhk7sLJa21Y6kcnvkuBeKkZd1v7NLufN2bly7Q/Yn0CwBHjlC/Al46yrICv90ntx4yfMB/VJxifoP34vWj9YHzStB9vmW6ExPlHT0r8nzk2dPOmPVHJ5eEEDpBIkScuQf9G6l8p3zlvtCrAIB4FLAbxqCaNDGGjse8DR97G0d4uf3Wd0diHLPnMIO5d4fqOnMH0id3o7w3CUtTFb6BP5vUejkK6KiO33qyvawsvUSCkZqxdD4yCGWuaxS76ddUMcoCLEvQp3MSb2RXQpOpL+6Vmsl0xQ06x67K+fcY8HpRl+8p/c8ZdgZh+IzA8EE/yb2T6BCNlBXEFqsFdjwfnClZTjJ8ISYobn6D9uL1U+hIci/GLnj9xdv109QTAP89U32QJ8/wqFiicJygT9s9sP1kf3w/eaRgFGMSj0MkgHtUkS1DEvpQen6H37sOD3xiH26+dgneOHWIY15YmLffcYRAHsHhmPx6/uQ+t8wZiL5CUR2WobOJf4uyqZ0GUC0BHpFrrUo4FtEP1LflJjobqq8JxIG6xX3RRcBzIWVEPxGJBNsm+yte2Nv/K1iewawdxFdqjbmy8Y3/mPK5/6l0Amz62G5HAj/CerX45+oatxh5ZtBU3Qn5/zZo2//T+xeljnN+mWT4e0wowiEehptFBfGjwXay7exymXTkF7YOHYB6bMHP0jdloWfA09g7WFvqS2jX9No/NflTq2GzHPNbbOXnkJWx4/Kt48MY/wV1X/QUe+PHVWLPtHQxqWh5eejamTT4b6w+l03doz+N48ro/wo+n/Qjv9aero/tU731TL/O4Hv7ZQHywrwMd29rwYutKLF++AqvXvYydXfsxpI3d0N5NWO624K2u8sYhU+uIr5kvIbtlbjyIUx6BOJVN/LPCYkpQsdalFr36flhBEGIg2dcCSqajnu0gNIFsmKA0DBAP2U/ZP8TZD8JDSvpXtj6Bs3EgDs83u55x/QuDeNh3OUb6vUnghbmXNH5x7ZvjZ9qNORY6GnX98yOPvOOgUHC18B2Lf6GxqLB/MW5z8uhSoF4gfry4CgsWLIj8mldsxlHtQlaPiy6D+Ad45b5xmObchB0CxMPH5ph0/vYfMG3ypdg6UB5smPbSHie1OzQY9ts8TtvOcMuZ7ZjHyt7Q4GtY88OPYtrln0VT031Yu/hH+M2dn8K0Sz6LF9r3+DPZwwVxZX+0bk29zON69MsE8aFjHXh9zVIsbXkRW99+He+2b8KGlqVwV7Th/b7g30Hfuy/BddvwXplPJjIF4nRpO94dH5pC4SoUtkJlUv2FAEXVSAkq1rpkQ4GQK17EFGEaXqiBbEHlB6EsqmW5lQCcc7T6IgzGgLFYUE6yn7J/sfZT+le2PoEa8SAO+LPCoh1dm7j+hUE8T/Cqh4AU48Yj8EfuVUpf027McaR/qlwRritn4vP0ToP/sq/Fv9BYxOmja6ja4G2jKFBPEG9e1Ip3OovYo//2d+IEg7gPYTboqPaXNYcG92PzA+Mw7du3okOAePjY9CkJiM3ylTpOane4/aiUX2nbHXrzFtw9+Sw0rd3hj/fQsWVYcP043PHgfP/fQeOBePh8M/Ws1DgNx44J4r3FtXCXvYh3jx70x25w/ya0uC42f3DAT+t6fQXclZvQVeb/aZkD8Uq8rOlfXEOAolJTgoq1LtmwgBCl+qBns6+9rGmzK9JMUIqbsba0770MKtdLt7Wvhy4oHWLsp/XPVk6YtvgX0ke1b4acBOliT7wUmodD8fehMI24/pkgHgbvYHyMdiKHFv/L0lcaDnsRacyIf/fy6QYiVFSOlf0JAYmrj2+cPub5FWqAD8a4AnUF8efW1TycIc3Ft9FnxEmjrT/9fUy78Q584AGEeTy044e4b/I43H7Jh6y/abf8Z2hsB7uWoOXhf8d93/oo7rzyz1G450ZsaO/ASc/+0OB7eGv2X2LaN/4FrbuClwyH+pZKML39bnQOHMJw2zX9No/182GoaxFu+adP4GOf+RIeeW2/D1N6mbT7ZjvmMdnpbTkf0yb/O17aH8ygEnR2LJ2C5uZn/SdDCsTXbW/G4nv+F358xScw47aLsHTTm6EQlqH272OGNibTJn8Uza8GtpXvae1R+aRxozJDgwdw6LV78Ks7/w7TL/8wpl32cdz7vQvw/EuvoN8A0DT2yKapl3ms+lKrrQ7iQ4Nd2LXRhbv+LRzT+jd0fDf2fbAdB3oknIuxpHJtb+BA52t4ee1KrFixEms3voa9vQHADw12oviSC/fldv/mS+h6aCuyB+In5fKFPQejL2SqVVOGBhOummomNPLCJdVLCyoKVIOZVdVq+GU5tYKFEdPsv8xnvkwp7QbL9hGk20JTlJ+FYGbXc8Bs33zZM5zv2Q/BrK6DaT+tf+XrE9Ix4pfK9fyIrKXu6eLra76s6AG+nx8dH9VC3Dasnzl+alzSvQxLITIlQ2JCEC09kk8DKObfe1G4nJc19UYtbcT1ndPHpgJ1BfFFbdijXchqdVFNaodB/DDenP1RTPvuj9DpjY95PHS4Ba8smYkXl8zEkns/jWmT/wnPeMeU9uKaVvR6dYf6VuK573wYd0z5ChY0348XF30fT037BKZd/m9Yo0P3kWY8dd043HXPbBz2ZuI/+PXncPsl/4Bl2/cJMB5OuzTOpt/msX4uDK25CZ8YNw4f+tCH8IVHto4IxM12zGNqVwFxUuy3LPd/MfuePOY13Yc1C2/BEzeOx7RL/xktHdpNy+FWbF4xG+vpN/9c/KgkiKewl3bcOh/CrMvG4cd3fAvLl8zC+qU/weJ7/wZ3TP4LPLut09cx7Xkw3HHTx7Ba+yaIf/DKUrgtm7D/ePRGR/kwNLgLb7a4WN72El5e/wrai6+jfctarHRdLN/U7t+kDA3uxLYVLla98Z6vFdkY/GBj9kCcLoOzrukVX9TUgZv21z41gFnX9iZcKRWoybjgUKxwvoDtqUGcgM4RH/WRNvQZRQV3XhuRD/Yk5BcLHnx7H/uxhqbImU4J6V47Plwl2AeFdmjL3+XVi5yGdLofFPOu7Ovp1LcY/8rXR/ohgDcWxAOgDq3c54/f8JYvDNswdIgcltI3LYir8zDhy65WSKabC2386KYi1IGof9HlC5NuFCKd5oQxrEBdQXzhS/igvwsn+g/4M6PqIlbPLYN49AXWUuORFCLSt+bruGNyHi3va9DY+xyeuW4c7p67NAQfR9suw39O/hSeWr8TJztn4meX/T5+0tSCAcsNW1K7pXy25Q11r8Wsy7+Af//qFDS/G4QX2MpWIm14IH4W5ra2+1qd7PwJfnrJOPz3021+mu7T0Nu34b9Kgrhhb3fUXtpxO7b6Ikyb/C9Y0xlA6dDABmx++vto3fym719ae3o/srKvgzj51L9nE1YRULe2Yds7b6Hz4N7Q0wkqM9TfjldcFyvWv4kedVM6uA8dGwniN+OASut7C+tcFxs75M2m6nN3++psgvi+nafwxNQ+sWY4fd6efrR++JNT+0B5/NcYCvhx4qHuWkA4lJ9wIMDXcpMWmXlPsFOpbC8EJ8TZlbLNdlgBT4F6gnjoZc1Fz2Nl2yZ0dlcfgNSFLm7LIF5ZEH9v/t9i2lVX4bV9b+KQ/9uI1h+Pw7R7HvVnzgW8DLZj008+iWk3XYfn7v8Ept14E3b0BoCnj1mlQVy3XYv94YH457F2b6DD0OAaPE+x5I8844Ou7nMyiCfbSztug684uHPyp/DLlldDoRq6P7Sf1p5ZLwvHJogPDR5E3743sG3jarQsdeG6S7FqwzYc0mbIhw5txWp3KTZpN6DUl85Xl8Jd9Zp46kPHQ12b0eKuwLZQiNJB7HltWTZBnK+erIBaOSW6HvsIQdyLVzdf5BTHtZJdhZyI2HN6KmJ81KhWfnA7DaNAvUD8ZN8H6Nrf4f3eRefOTXhxSTOebdnix8bW6wLMIF5ZEH/3F5+xxpFTfPm0/3wkMt5DXXPw8yvGYdrkP0fz5vDjev2caCwQDy9fODS4AUtvHodpDz1dJogn20s7bkP9bWi58+NyjL/5J7jvexPw5Kzb8NKW10Mxz2nt6WOclX0TxHW/Th7vRFdxvZghX/3W+/7yhYMfbIDrrsb2o/oN1F7sXOfC3fgWjnsz4sc72uC6L2KndsM5NLgHO9pcBvGGuRKPto6KmeIg7j5wf+QgHtiqx14Q+04hT3mHIbweo9BobdYLxPULmdo/8d6LWNi8Au3dwYVL5dVyyyBeeRCfdvVFWP3qc3jb/LW/EYI1Guf+t27Df1/yYdx+yf/EY0u3xoYtMYhXH8TTjttQ/7vYs+1pvPzCvXhh7jX4xe1/htsn/xl+u2mXf6NAIJ7WXi3/vadpqxSIU/2hwb14lwBbe4HzaPtquEs3iJeMVRtDgx3Y1uKi5fUOX5eDb7bAXf4K9mnhV6LcCgbxRrsec39ZAVagARWoB4jTKgvHjryHQ0fDK1MMdW2C2/w8tmqPaNUFrJZbBvHKgrgISbj8WryjgUbceA4dW4slUz+MO394HzbN+ztMu/JcbNwXrDCh1xvtIB63asq7i6/Ar+Y/4z8psIWw1GJGfDjjpo8L7Q8NtsG9eRy+//Bv/Njpkdgz7df6WIE4vYC5Y9MGbNsVvIQq+ytnsJdukiufUOhK52tL4a7egiPaeT907G1scF2se3evAHH6v3D3Jhfumq3+eAt7PW+gzV3KM+INeE3mLrMCrECDKVAvEN+1/lk0t2zxX2Kii09/xxo827wC27VHtLW+4FJ7DOLDA/GuRf+KaZO/hs0x49a7+iLcMflv8NybAbwMHV+DtQ9fjGdWvuzPDNJyb7ue/kcy+0lWAAAgAElEQVTcfsnnsHzHfgwdbcZT147Dj2Y87sfT6udDUrt62TT7Qz0vYvaVX8AXzrsez+6s/rsKah3xeWv0dcRdNE8Zhztm/sp/UlAvEE87bgdXXooHbp2CbdqTrKHBV9FyW3g99LT20oxVrcsEIL4Dry0Nr3pCvvR3bRbx4K90yMkFsSRhm2VJwgOvYZW7DNu8eH8C9t2b5AosXSfkk0BKO/w2zaa3MYg32PWYu8sKsAINqEA9QJwuXMd3t2FJ80KseHkLOt5vx67tL6P1+WY8t/b1EJzX+oJL7TGIDw/EB1+/GfdMHo8HHvox1qolDNdv8Fc6GepbgUU3fRjTvvUv+PXTP8GLi3+IZ+78U0z7xt/DfUfODJLuJ96djge/MQ7//YsVft2jay7GjyZ/Ek1rgxVD1DmR1K4ql3ZbyeUL07QZfFnz70Nf1rz9ks/CbQ90SQviR9+eJ5cu9Jcv/APMnustZ7hiNl7vkDdCae2lHbfB9jvx35eMw90/vB4rxfKF9+OFBz+HuyafhSdb3g5utFKeB2m0q3WZAMS70Ll5JVx3GdZueg3FHW+gfVsbVi+j1VHeQLcP03JJwlZjScKBXevhumuwQ7tpOdaxDsvdpVj9yhZ0dLyF7VtfRIu7DOu272YQb8BrMneZFWAFGkyBeoE4fRTj6K5NaGtZgucXPYvFS5bixc2v42CZn4Ku5IWZQXx4IE7xrDsXfQMPXncWbvc+KDPtntmhG6rBrsVY+dC/476rx+POqz6DB6Zfi7Xb3vbjv4cGXkbLHeMx7dvX4R0NUoYG30Db3X+Eaddcii2Hw+8OpGl3OOfFUNez+O7nPoGzPjMBP301HDY1HDvDKXvyyItY//hEPHjjn+Au0uXHV2P1trf9cA6ylRacO5r+OvalWHox9tGlEorT2qO2k8aNylB89P51d2De7X+L/6QP+nzjj3HPzV/CM4uXh8It0tqjcln7KRAX/e3vROdbG9C2eiVWLF+B1rUvYUt7ET39wfk51GtfkvDI26vgLns59P0E+r/w4I6XsW6N/ODP6rb1eOv93eJmNHMf9Gmw6yN3lxVgBViBqitQLxDP2oVW94dBPHsgpI8P7/P41Poc0EG8lm0ziFf9EsgNsAKsACtQXwUYxKNQwyAe1aSW8MFtsf5ZOwcYxOt7neLWWQFWgBUYswowiEehh0E8qknWwIj94TGq5TnAID5mL4HcMVaAFWAF6qsAg3gUaBjEo5rUEnq4LdY/a+cAg7h2nTq0+zSa7jiGe87rFp+3p0/c0z6lUV7av6LrIJ/Po+CmrcHlWIHaKsDnaG31btTWGMSj0MMgHtUka2DE/vAY1fIcYBDXrpCP3dCH5XMGMDhwxk+l/WVz+jHnxj4/LWmnWMiDvl7olAPixQLy5dZFEa4j26b2c3kHhWKStzJf+Szq0ZcX01ZMZx4Vs1+uPuKLmTkxLqqP/rasgUrZ8YwWU+PRgF3P6IiMTbcYxKNAwyAe1aSW0MNtsf5ZOwcYxL3r36khYPq53ejuis58dx84LfJOnazBxbJc0AQ82M3DcYsoFosoOASets+12/oh6xSL8lPolQZxoEL2R6JPUfrg0o1SvgDXO055r2ITjdNYAVaghAIM4lHoYRCPapI1MGJ/eIxqeQ4wiHsXEQXivYeiIE5pBOlJIK5mGdVMa3i2sYhCPoecU0DBn7UmaPYcKDFj65exzHi7PkUq+8ogkbkLJ6+1YakfnfguBeKlZtxt7dPsft6YlS/T/oj1CWhBjFO+AF86yrICvt4ntR8zfsJ8VJ9gfIL24/dK1U/TfrxluhES5x89KfF/5tjQzZv2RCWXhxM6QarpXynfOW+0KsAgHgUaBvGoJrWEHm6L9c/aOcAg7l3h+o6cwfSJ3ejvDcJS1MVvoE/m9R6OQroqI7ferK9rCy9RIKRmrF0PjIIZa5rFLvp11QxygIsS9CncxJvZFdCk6kv7pWayXTFDTrHrsr59xjwelGX7yn9zxl2Bon4jMDwQT/JvZPoEI2UFcQWqwV2PB+cKVlOMnwhJihufoP24vTTjmyM4FuMXPX/i7Prp6gmAf56pvskSZvvFggNqT7F4ePzN9pP18f3gnYZRgECc/8IKEIhX8m9dx+JKmgvbyuUgICGcykesACtQSQXq9O8sU+uIL57Zj8dv7kPrvIFYaSmPylDZxL/E2VXPgigXgI5ItdalHAtoh+pb8pMcDdVXheNA3GK/6KLgOJCzvh6IxYJskn2Vr21t/pWtT2DXDuIqtEfd2HjH/sx5XP/UuwA2fWw3IoEf4b2k+nHtG+dP2Gj8kUVbcSPk99esWmP/zOb5eFQqwCAeHTYG8agmnMIKNLQCDOLAmvkSslvmxoM45RGIU9nEPysspgQpa11q0avvhxUEIQaSfS2gZDrq2Q5CE8iGCXLDAPGQ/ZT9Q5z9IDykpH9l6xM4Gwfi8Hyz6xnXvzCIh32XY6TfmwRemHvpxjenGxNamONn2o05ttX1z4888o6DQsHVwncs51doLOL0KdO/GLc5eXQpwCAeHS8G8agmnMIKNLQCDOJy+I93x4emULgKha1QmVR/IUBRNVKCirUu2VAg5IoXMUWYhhdqIFtQ+UEoi2pZbiUAE8j5dUUYjAlKcaCcZD9l/2JBPKV/ZesTqBEP4oA/Kyza0bWJ618YxPMEr3oISDFuPAJ/5J7SN65+XPu6j6bNEseR/qmyRbiufNKRp3ca/Jd9lX9af0JjUWH/lDu8HdUKMIhHh49BPKoJp7ACDa0Ag7gc/kq8rOmfSCFAUakpQcVal2xYQIhSfdCz2dde1rTZFWkmyA0DxL2XQeV66bb2baEZMfbT+mcrJyRO0keNgxlyEqSLPfFSaB4Oxd+HwjTi+meCuAaqofEx2okcJvkf1745ftJw2ItIY0b8u5dPNxChonKs7E8IqHP6+A7Pv1AzfDBmFWAQjw4tg3hUE05hBRpaAQZxOfy0IgqtjNJzMPpCplo1ZWgw4VRRM6GRFy6pXlpQUaAazIyqVsMvy6kVLIyYZv9lPvNlSmk3WLaPIN0WmqL8LAQzu54DZvvmy57hfM9+CGZ1HUz7af0rX5+QjhG/VK7nR2QtdU8XX1/zZUUP8P386PioFuK2Yf3M+mpc0r0MSyEyehRLpM0QRMtc+TSAYv69F4XLeVlTb9TSRsQPThjTCjCIR4eXQTyqCaewAg2tAIN4MPyzrukVX9TUgZv21z41gFnX9gYFrXsK1GRccChWOF/A9tQgTkDniI/6SBv6jKeCM6+NyAd7EvKLBQ++vY/9WENT5EynhHSvHR+uEuyDQju05e/y6kVOQzDdD4p5V/b1dOpbjH/l6yP9EMAbC+IBUKvVQrxapZefFIWS9TGUMA5L1U8L4uo8TPiyqxWS6eZCGz+6qQiJEPUvWJ4xrX9Gl/lwTCvAIB4d3tEI4nsPH8exoWhfOIUVYAUqoACDeCDivp2n8MTUPjEzTp+3px/Nkj85tQ+Ux3+NoYAfJx7q7v/P3rsAyVHd9/6Tf92KnApl1/Utu+K4nFQcV16V+ye3kuukU7F9848oX2EjY0McC1P4gRmwMRDAFmv5fQWxubYGYSxkZB5BxvjBrCT0GEmwCAnEUzwkBEgMSDy0Qlo9V7tiVyvt7vdfp0+f7tN9Tj9mdranZ/c7VcN0n9fvdz6nxX779O+ctgjNUH7KiSt8LTdpxsx7SjutyvZCcEI6u1Vtsx0S8AhQiJuXQicK8befWcHbP/VzfPrWl9FrPjQ2O8kUEiCB7AQoxLOzYsnpQECFvoSjpa2hRQ3iiC7i9M8bbKfp4irkxI3tF09FIi81arphViQBOwEKcZNLJwrxDY/vwG0/WYr3zFqI8+4/bnaKKSRAAs0ToBBvnh1rTkEC7kxxEHcf9HCCM+JBQ206CmLfRciTU6YIb9NATCuzRRDix3Y+gO7uHuxMiy7MaWQ6UYi7aE7uxIWzFuBDdx/IiRTNkMA0IUAhPk0Gmt0kARIggZwJtF2In3gDj9xbxeqn9qEoIc4dK8T3b8EZsxbg8xvSdi3I+SKjORLodAIU4p0+gvSfBEiABIpJoL1CfBQHnl2L6rIH8UqBoik6VYiPbVmP98xagh9Go/aKeenRKxLoHAIU4p0zVvSUBEiABDqJQFuF+OBLeKC7itqzfSjSUvtOFeIHa/fgtFm/wS+OdtIVSF9JoAMIUIh3wCDRRRIgARLoQALtE+IjeOOxlagufxivDhULXKcK8ZEdm/C3H1uEz9zzGl7Y24/evmPoPTiEE8XCS29IoPMIUIh33pjRYxIgARLoBAJtE+L9L+K+ahXL1m3AxnWrsXLVWjzw6Hb0DrR/brxThTgwht0bVuPvZi+Au53hmRWc9pkePNkJFyJ9JIEiE6AQL/Lo0DcSIAES6FwC7RHiY9j31CpUq6uwcdur6DtyFIf37cbTPfeiuvpx9LZ5CrdjhXjfNpzzqQo++IMnUH10Fx58ajce3HYQjFTp3H+f9LwgBCjECzIQdIMESIAEphiB9gjxI9i2pooVj76O0P4eQ7uwsbuKjS+/1VbKHSnElVDgL0AGZDBZ10DO/2cq5WyP5kiABEiABHIm0B4h3odnVlZx3wvRudpD2Lq6irXPHcmZQtgchXiJQm6yhBzb7exrK/y/ikk/K6QQP7RnDEvnHcd1Z/e7r7cXr7gXxyJN5PHTOQTqtTIcx0Gl1jk+01MSmGoE2iPEh/HKpm4sf2gX9HWa4wM70VPtxuZX2xub0lFCXL8gn9+AD8y6CXOf0RN5TAIk0KkECinEb7lsEOuXDGNkeNznKo7XLRnCkssH/TTbQb3iQLyxUH2dCjdbtXHKK02NR5lCPC/ktEMCBoH2CHFgpO9ZrO1ejvsefxGv9vZiz+7nsXntMnSv24qDbX6zT8cK8UPP4OOzFuCcNembsm/uej9mzPgrXPuscUkwgQRIoCAECifER08B88/qR3+fOfPdf2DMzRs9mUSvjnpdfOWrxCnEk1gxjwRIYDoQaJcQB8Yx1LcTTz64DquWL8OKVeuwcctO9GmTLO3i37FCfHQnLpq1AM5dfSno3sSSWTMw412X4v5QkH5KNWaTAAnkSqCwQnzgkCnERZoQ6clCXPFLEuJ11MrazLlTRjBxXkfFKaFUrqDil3EQntGth/IqtQqckuO1oeprU8B1PV/4l2Rf5uu2w+3b69camvhPsq/8T+q/Ymz79eprTyVKPhtVXucnnl44KAcDYOUT9G+i/ikf+EsC04dA+4R4cRl3mhAfGz6O3r192PDre/Ansxbigh494MfCeewBXP7uGZhxzi/Q3mh8i29MIgES8AkUTogPHhnH/Nn9GBoIwlKUt8ODMm/gsCnSVZngN16I18pS/FVqcva84p6XIaWzEpJCfMuZdVeYl1Q+IMMtgvyy4zQkxJPtp7Wv8sXNg/Rf3lQE/gUM7Edh/4UoFjxU/fT+21vVUj2/3CcToZsUWUbaD/yvV8quGFdaPOxfTd4YtdI/zVUeksB0IEAhbo5ypwnxYz3L3H3DT5t1Iz54/XbsTtuKfddN+KcZM/CPlZ1m55lCAiRQGAKFEuIrFw7h1isHseHO4VhAIk+UEWWTP/FC3KgXmrFWM65xM9qW/JouJC35ofYN60JZJwt5S/uhkJtQfUv7oSTpX7h+DZVyGXLWuQn/Q+1HTiy+uTciTgX2SXybfyl8LDYiXvCUBKY1AQpxc/g7TYifOrgfm7b24rn9J5CmwUVvT6y+GKfNeB+u2Zxl4srkwxQSIIF8CBRKiG+8S4rsnjvihbjIE0JclE3+JAhxV7gFCzrlws6soSUtEIoZ7IeFskWIhkI/ZF/C4TNxdCz+h4pOvhCXNx7yqYRTLqNSqWmi3OKfx0v2r8X+hfrOExKYmgQoxM1x7TQhbvaAKSRAAlOBQKGEuAD6Vn98aIoIVxFhK6JM+idOiMv0UrnmLeqsox4Kn0gTenFCMauQz2Y/TYg7QrzqISB1+/yyycnif6hQWv9DhdNPYmer66jV5Ey8I2LyI6EnZv9LXpx+i/1L7wFLkEDHE6AQN4eQQtxkwhQSIIH8CRROiKtdUyZtsWZodtUDHhKLaULPkm8JHRFC3//o7Tdj39J+SKiK5Y0TEeJihxl/r29L/3T//U7Jg1T5b6srbiBC7cibE33GO9S/UBuN+RcywxMSmKYEKMTNgacQN5kwhQRIIH8CxRPiJ+X2hccOmnFtateUU5m2YlKCrRLMHLt8vRlpp4KaO6MsRKgMk5CLBVW9GCENQC62VDutqMWOakZcLabUF3OWUPJjotPsN9q+2gFFLbZMv4jCiyGV/6p+ev+lBa8fJTVTHWM3JKK9mmJxqCNi0uVi06YWa8bd6MS4wWQSmM4EKMTN0acQN5kwhQRIIH8ChRPiAsGiiwfcN2rqglscb7p7GIsuGchOqV7xRLaMofZnqfV0sXVhQ6EpwrwS77LdckWP4ZbuRbdHDLbfE9PXml+G/SztK/Ht9Su0/WIWPEn1swpxr5zYmlC7ZzGsW4S44FdxtO0jm9q+UDNqtWF4wgQSmLYEKMTNoacQN5kwhQRIIH8ChRTi+3aN4rarB909w8Xr7cVX7B9++9WDEHmF+agQi8kSgs207/riCfTIgs5QuEdeEENhNXkZpR0SIAGdAIW4TkMeU4ibTJhCAiSQP4FCCvH8MTRhUYVV1OuoVcTsrgrtaKItW5UJtB9dxOmf2+xMRprvu/fkwA/LmQxjbJMESCCNAIW4SYhC3GTCFBIggfwJUIg3xVyFZaiZ5+ibN5tqVKs02e1rplp+GMSOi20hnXLcfuEtN8wGSYAEYghQiJtgKMRNJkwhARLInwCFeP7MaZEESIAEciVAIW7iphA3mTCFBEggfwIU4vkzp0USIAESyJUAhbiJm0LcZMIUEiCB/AlQiOfPnBZJgARIIFcCFOImbgpxkwlTSIAE8idQev7559GOL0ol8EsGvAZafw20498zbU7u/0d37tyJPXv24OTJk039laAQN7FNDSE+hqFjg9g/eMrsIFNIgAQ6ggCFOG8IeEM0xa4BiuLJFcXt5Ltjx46mxDiFuPn3uLOF+ChefrAHZ52/EG8/s4K/XNJrdpApJEACHUGg7UK8nX/UaHvqCpbpOLbq6cJ07Pt06rOYGW/0QyFuEutoIb53C8742AL8edcm3P3ILjyyZ8jsIFNIgAQ6ggCFeJtCc6aTcGBf87nhoRDPh3O7r2cRptLopz1CfBxvPFpFd3e39Vt9eDdGGu1IC8t3tBB/aj3ePetnuLbxS6GFBNkUCZBAKwhQiFOIt2WNQLvFzFS0TyE+PYS4uHYb/bRTiFd7nkXv/v3Y7393YvO9Vdy7ZS/GGu1IC8t3tBDfsRF/MesmdG1tIRA2RQIk0BYChRTijz/4EhZf0YdrP3EU9yx8w/2KY5Em8qaiiJqqfVqz+FycfvrpmLt4O8dtkm/6KMQpxOP+irRViG/aFZr5Hut7Bquqq/BMXztlONDRQnz/FpwxawG++GA7nynEXW1MJwESaIRAIYX4jRcdxN0/6MXWZ17wxZs4/uUP9uAn5YN+mk28rpl7OsQbHdX39LlrEsvb2mBa6wSNGo9zKcQn/TqkEG/ddVv0/wc08j95UbY9QhwYPnYAB44OaTPfp9D7xL2o1rbhyHijvWht+Y4W4gPP4V9nLcA5a463FgpbIwESyJ1A4YT4c9tewPyz+vHkwzsM4fLk5h1u3nNbA4Ee/YO5ffsarFkjvotxbqkECvHpI06i18J0O6cQnz7XeqN/KdolxA0/R17D5uVV3P/iMSMr74TOEuLjOH70GHr7jmHP3j5svqeKP/74nbhxd3ufKuQ9ZrRHAlORQGGF+FOPmkJcpAmRniTElfjavj1eiAuxvvhcbeb89HMxd40MnRB5c08voXTuXMz1y5wOfUbXLaPlzV08F6eXTnfbCOov9m8ktq8J8oV/SfZVvm5bb1/lR/1f7Pmv+p/0a7Ov6gf+x/c/rW2Xn/ZUouSxUfVcGz4/8fTidJyrPbmYTP+UD1Pxl0KcQjzuj1RRhPhbr2xEd3UDXi7ARG5nCfER3PO9Be5WhafNquD9l67Ez3eciBtuppMACXQQgcIJ8ace24H5s/vxzJMv+kJWiaZnt7zo5m151MxTZdRvkhBffK4Uf3MXy9nzue75uVi8fbsrkqWQFOJbzqzLc5kv2pfhFkH+uaef3pAQT7Kf1n6QL24epP9SlAf+KQZxv9J/e31fiAtxHNP/uHZV+nbPL/fJhHaTovKj9tfMPdcV4+pmKMpX598K/5QfU+2XQpxCPO5vTzGE+CB29FSx7OHdKIKE7CwhPoZ9L+/Gg0/tRs+jL+Dm62/Huy9Yi/vb/2Ah7pJjOgmQQEYChRLiS7/3Jm665AB+u2CPIcKVaBJ5oowoq9Jsv0lCPFpen7H2hd659hlta/7iQEha8yMz4g3bt7Svh9zo/kfbjp4r/+Lqq/xSTP+j7aWd23xzb0ROn4s1280FnMp+Xv6l+d9J+RTiFOJx/98vhBA/sh1rqyvw+J7m3g4a17dm0ztLiEd6eeRZzJ61AOf3DEcyeEoCJNBpBAolxO+54Q1XZP/6R/FCXOQJIS7KJomkJCEuxWGwoFMu7MwWWtIKoZjFfqoQDYV+yL7o4TNxbJT/ajGr/ivq+/mTKMSD/p+O0889F3PnLvZFubJv9r/khgep/FbdKMRx6sR0CnEK8bg/QO0X4uPoe2Y1qqu2YP9onJf5pne0ED+6FWfPWoBzawWI8cl32GiNBKYcgUIJcSF+nnkiPjRFhKu4YStPmPHjUeEUJ8RVuhByclHnGqzRwifShJ7KN4ViViEvY9fT7Ke1f7oQr3oIyJpsu8ME/tvrq/xWCV3bjLgYK2Fn8eLFmHuu2N5Q3EiEQ4PM/lOIR6/x6DmFOIV43F+otgvxU3vxxL1VrNl2EG3eLMVH1NFC/LVH4cxagC9vLshdjU+VByRAAo0SKJwQV7umTNZiTTUbq88e62IxTYha8y2hI3FCtin7lvZ1oSoEmRDlUWFmO1f+x9VX+XH+R9u0hZfoZXS2Kt2NIdfCUtTNkT4jr/unt9Gof8rmdPilEKcQj/sD0G4hPvL6I1heXYcXjsZ5mH96RwvxbT3441mL8K3n8udGiyRAAq0lUDwhvlVuX7jlEXPWW+2asu3Z+O0LleAKBNvcYObYXYzpzUifPheL1TaH7oxsthlt0b5cbCl3WnHtqMWf3s4l0cWG54r2vZhoJTrFuc1+4+2rHWAaXaypFmOG6wfc7DHyAV+PY0nOVKv06K8uolWejBE/1+v/GjS1WLNFoTPKp6nwSyFOIR7356G9QnwIr2zqRvWBnShSIEVHC/Gn78MfzLoF1/EV93GXPNNJoGMIFE6IC0F0wxcOuW/T3KYJbnFcvfEN3PDFQ5lmfkU7QgS6IljFU3viLZQuti5sIDTFbVdsjeiKdy82e254e0JRJml7wST7WdoXYjnavtpxRNRP+ybVzy7EvW0exdaECS/rsQlxcTMy93Rt+8imti9MvlFIYzAV8ynE06/9qTLujf6Faa8Qb9TbfMp3tBDf/xRmfWwB/sf12/DkG0exb/BUPtBohQRIoOUECinEN9/3En76lQPunuHqFfdi//BFXzkAkVeUP6YqxMImNlvhYzPtS1+iC1HluR7u0Qr/srSxXQuryVKeZZoXkxTizbPrtOuu0b8EFOImsY4W4jiF7auW43/MlnuL/+WSXrODTCEBEugIAoUU4p3wR1HfK3vxXDG7mz00JEv/JtJ+dBGnf67FZWfxodkyge/ek4OYrQqbbZ/17IKTQtzOZSpeL43+daEQN4l1thCX/RkZOIrnX3gNj+4ZMjvIFBIggY4gQCGeIZQj+ofcD99QIS/uy2/MPbGj9bKeT3b7Wf1oppwfA++xOf1c+37hzbTNOslCk0I8mc9UuX527mw8MJhC3Px7PBWEuNkrppAACXQaAQrxJoT4VPmDzn5MLeFGIT61xjPu3+eePXsa/jtDIW4ioxA3mTCFBEggfwIU4hTihYm5jxMeTM8mMCnEs3Hq5Otpx44dOHmy8TdTUoibf1wpxE0mTCEBEsifAIU4hTiF+BS5BijEp64QF+EoYia8GREu/qxQiJt/XCnETSZMIQESyJ9AKX+TnsVSCa5waJsDNEwCU4wA/01NsQFtXXcoxE2WFOImE6aQAAnkT4BCPH/mtEgCk0OAQnxyuE6BVinEzUEsuhCvPb7LdJopJEACU45A+4W4Eg/8lU8IyIEcJnoNTLn/TbFDEyVAIW4SpBA3mTCFBEggfwIU4hMVPaxP4Vy0ayD//4/QYsEJUIibA0QhbjJhCgmQQP4E2ifE8+8rLZIACZDAtCRAIW4OO4W4yYQpJEAC+RMopBA/tGcMS+cdx3Vn92PT3SfcrzgWaSKPHxIggdYQqNfKcBwHlVpr2mMrxSRAIW6OC4W4yYQpJEAC+RMopBC/5bJBrF8yjJHhcZ+IOF63ZAhLLh/002IP6hU4JQeVur1ErVxCyX8rpjouQ2qRGspunjoH6hXHLV/2xEpi/VrZ0rZnQzVgd8tLraPiKJ/Ur4NyLeiM3X4JQfN11MrSZ7efTjlgkck/s35gvhX+JQBI9a9Z+8F4Amb/wtdKcn4y/3T/Enqfe1b02s7dARrMhQCFuImZQtxkwhQSIIH8CRROiI+eAuaf1Y/+PnPmu//AmJs3mvY+ixQhLoRYvV5HTQhsp4JaXZwr+EKIO3AcJWyFsNLPRbmk+nDbNtuvwzehTFl/PSFXrgXteKJaCW1XCGr5wpb4qo8UV1K8i/SKe+MRCFFVPtz/wL9w/Zp3Y6DqT9w/5Wfcb7J/6fZTx8e9sUrgk5KfzD+Lf3E9ZzoJTA4BCnGTK4W4yYQpJEAC+RMorBAfOGQKcZEmRPrEhbgE7QpOpxIRyFKIl4X4FcpXiHqnjLIvzINBsjx4h8EAACAASURBVNfPnh+U1I8CIRekyjTHm7ZVQjDI148s9es1VMrarLhX3O6/rb7+hMGSj0b8031NPs7sX8S+ajVz/XoNZT88w9K/UD7QMP8Y/5Sf5m/SjLzyr4KK/9RD3FSYrdhTvPqhJ0LRp0fi5k17olJyUA49MjD9M56YlJv1z+41UydGgELc5EchbjJhCgmQQP4ECifEB4+MY/7sfgwNBGEpCsvwoMwbOGyKdFXG/U2dEZel7UJNhqaUa0KAV9xZc6ciZ4WjYsdeP/AkLT8oqR8poRUoKzeOt6Rm6NOEoJdv3GDoNuSx3T9pX4l+t2SI58T9Mz2xpyT5594kedWifFRrSfVD/VMV3F9L/0P5afzT+USaM05dv4X4rcknHeEnGl77fn70iYXRnJngPUFxnzyI6zwSxiXtixs3ab9eEeFWgVgP+xe13wL/TI+ZMkECFOImQArxfvznt2ei9OkbsMnFEz03mU00ZVf3pfh/PnGG/y3N/iSu2T7RVrPWj/Yvep61nUbLRe1EzxttL2v5qJ3oedZ2WG6yCRRKiK9cOIRbrxzEhjuHY/st8kQZUTb2ExKOsaVk7LchWJUQF4JChKQIASLFRa5CPDRjWYKjGXdnZCP5IsQmCE4RM7wyvlzM5leC6coQjMxCNcRTCS0Vv+7Zaci/kBuxJ0n+RWP8dT6qwaT6ExbisfzT+Sj/7L+yfsg/74mGHEavfY23+9RGE8r2dmNSQ2Mry7jXV+h60uva/NPFfIv9003zuGkC7RPi4xjq24ktD67DyuXLsGLVemx6+mUcHmm6Ky2rSCE+hF/Nn4nSZ3+KR12q0fOWofYbOrZ7M+5ct1p+b/863pGrEI/2L3ruu9nig6id6HmLzfnNRe1Ez/2CPGgzgUIJ8Y13SZHdc0e8EBd5QoiLsrEfi7iwlbULNSXEgXqtgrKIxUaQprdjrx+USMsPSupHgZDx47sjokiFRqhYavmrtyGP666Ac+AI0RhpQ5Sw+5ddaE3UP9PjcEqSf2JGPM6+aiWpvhS6clyVqJfaVu+/LT+YEbfzTx8/5Z/9V7dvKxG07+dmvN798vqBra6bJm6wHDgipKki/g2oj8U/r7zOT39iMaEbBWWWvxMi0C4hPn70Rdy3rBtrHt6O3b292PPKNjy4qooVm17B8Qn1aOKVKcRPovuHM1H6wi14ysUZPZ8448QWtt+MP8hViEf7Fz1P9HYCmVE70fMJNJ1YNWonep5YmZk5EiiUEBf9fqs/PjRFhKuIsBVRJvFjExeWCnahZhPdtrQ4IRsYsrcf5NuPIkLL3UUkCAsQdZQQt9e3pIaEUpBv9y9OaCkfJsG/wKXQUZJ/vtCz8FGNJNX3Z5zd8At9fCP9N/LT+KfzUf7ZfyP2jUKR9kV+xuvdaCqxbh21mlxbIBYul0rhxbo+P78NFTrVYv+sTjOxUQLtEuKHttVQXbkF+0YDj0defxTLqj3YmWEDrKBW648oxIHVC85AqXwbtnl4o+cY245rPj8Tv3ddDwYiQ7B72VdRmn0Ffn4wyDi+5yHM/+Fl+OsLZuMdc87D//zmj/Gz5w9DG/6gcIoQf23F5SjNnodfh+7YduMHX56J0o8fDtoBcOrQs7hhwRX4qzkfw2mf/jQ++N2bsLQ+gKhSiPYveh5q9MgDmOu8F+/+s4/j5ucm9ggnaid6ruxm6ce+NV9DafbXcMfLj+Nb3/kC3vPps/HnV3wXP9jSh+g+FlE70XNll7/tJVA4Ia52TWnvYk0lKtTg6EJNpeUkxL3ZeF94pgpxufBQj1yA10ZIPKXMiOv2wkIvKrQkG718wzcKAdLQUZKQDuyZ9lUj2eqL0vr4RvsXzW9QiFvGT/ln/5X2Q2MVWixq8S9BiAcz2XZr4bH1yoibj1Bxk0/YP4amhHAV8KRdQvzIc2tRXbMNhzUm4/u2YEW1By+FBJZWIKdDCnHgvp98DKWvLMUOj3n0HBjDwz/7V5TOuRarTugDcxA/u2YmSl+r4g2V3P8ILrxgJt7xle/i29XlWLLiP/GVqz6F0jmXY5Ht/R+tEuInnsc3v/xRzPji13H1b6r42bLbcdG/n43SuZfj5ojdaP+i56or7u/ma/CHM2bgbW97G2Yufi2U1ehJ1E703G0vYz+kEP8K/vd3vozP3vFb3Fz9Gc65aBZKZ38FN7wevuWJ2omeN9oPlp8cAsUT4ifl9oXHDpoLMtWuKafSbk6VMPEWu/khBD7DpO0HddGhKkTTkuqrOulCPSipH5lCyxWU/oxkIAT9fnmL6mQrXn0RM+z1X+4prma0A1t2oer5HbsYcKL+BfbTjuz+pdsvyvaFqn/R8VPpcb+yfMpiTf1OS13vIfUsr1kRdqMXNWxa6soY8bK3rWcdTS3W1I1abBh+MGFSCbRLiI8PvIKN996LTS/sw7HhExg62outPcux6pHXkbDKZ1JZqMYpxBWJ5N+TW3+C98w+C5du0f7w9tdw1idm4sPdvX7l0d33Y96SpVh3wE8Cjm/AZz45Ex/8zataonfYIiHev/F7+N3ZX8bCXk0zDG3BVz83E3+0RM31m+ZTU97aisVfnIV/OfsqLH9Nazu1YnMFsvZDCvGz8G8PBLe343ur+MgnZuL0u15uzjhrtZVA4YS4oLHo4gH3bZq64BbHm+4exqJLog/ILPzcP/zhxYRuHLAnDlyhEV1s5wvdqOgW7YfTkusH/tiFZJBvPzKFppy1LEHNQtrt64Irsv2cuzVfSKW5puP9y7I9XbCrS+P+2XseTbX71ywfFVohrJj9C+3Ol5KfzD/dv2g/zfMk/+Laj95oeeXcGzLTgp9iFcliJ5SJbl8YvT6i/vke8CAHAu0S4qJrJ/qed+PCu7u7Ua12Y/XDL+FI9Bl6DgyiJijEo0Rizk9uwVfnzMQf3vwUTnlFjj7wbfzu7DJu2GPWGT1xDPsP9qH3gPg+jis/PxPvuOlJs2CLhPgzSy9A6TPXY7lrT9l9FT+ZNxOl79Zw1LRcyJSs/ZBC/DIs7tO7sRPfuXAmfveGR/REHncIgUIK8X27RnHb1YPunuHqFfdi//Dbrx6EyOvoT9xNQikQ2h3dvzTn2X+5eNa4EWzT+CfE2KcNJfM7h0C7hPipQy+gZ8UK3L9lJ/bs68Obr+/AY+uWY9WmOtKW+kw2XQrxrIRHsHbhJ1D63CI85k4MD6H7hx9D6dKl2Kk3MdKL3yy6DO/75Ex/e0K1VeFpP3lCLymPWyTEH7/t3wx7ym7pmyuhT9CbThQnJWs/VIz4naE7DHvsfHF6R0+SCBRSiCc5PBXyoiEl/vlU6FyGPvj99UJq/PMMdadCEb+/7eq/b9fb5tKyo85U4Mw+BATaI8SHseuhbizbtCsUhjI+uBM91eV47I32TotTiAfXR9rRW4/9EO+YfR6+/9I4MPIoLvr0TPzNL1/Rqo3j+V+X8V9mfwqzbl+N1Vu24IGnxXcFPnf+TEy2EC/N+S4WufaUXe/3pT5oATWav8U7FEI8Sz8oxIs3dhP1iEJ8ogRZnwQ6ikAQOy7CtZyyvv98R3WEzjZAoD1C/BC2rq5i7XNHIp724emVVdz3QmhKL1Jm8k8pxBtgPPwwPn+uFN8jT9+Ad83+LK4NhSPvw01XzUTp690IosZF+y/im59vToj3rZuL0uyr8Z+hy2QHvvWFmXjnoi2+825Ix78uwIboFil+ic44yNoPCvHOGM9GvKQQb4QWy5IACZBABxJojxAfQv3BKro3voy3NGbjAzvQU+3GI6+1d66SQlwblNTDt1D94ZkoXfVb3HPHeShdeAueDgnfo7j9mzNRuuwX2Kmtaxx5/Zf4x9kxQvzl2/Hnsz+Gy7ZoFXQ/tt+M98z+BD7/8DE/dfSNu/EPs2di5sr9ftrRB7+L3539Wcx7QdvW5eROLF7wPXz1/gnsdjK0DT/70izM/OTVuPf1GB99LyZ+kLUfFOITZ120FijEizYi9IcESIAEWkygPUIcGNm7Baury7H+8Rfxqnihz+7nsXntMnSv24qDauVfi/uatTkK8aykZDkhFGd84ov4m0tm4k9v3Y6oNH197dfx9tln4r/PX4wbVy7DjUuvx0euuAof/VKMED/xFC4T2x1ecT1uWOO9bXPdamza5yn8sV789OtnovTpMi78xT1YfM8ifPwLH0Xpgh9irb4H/Ynt6Lr4oyjNuRRfvquKW1bcia9+7VyUPnkhrts5gZu9Fm5fmIl0xn5MphDf3PV+zJjxV7j22Uwes1CLCFCItwgkmyEBEiCBohJolxAHRnF87wt4fMNa7xX367Bxy070DYWmU9uCjUK8QewD9+FTZ89Eafa5uGZ7VIYDGDuCR5Zdj38pn4N3/Oun8NddP8J/vvIc5pdjhDiAwzuquPCq8/DftAWeX3ok2JBh7NhO/PynX8f//MIn8F/P/xw+8h+3YfVebebb68Kpg0/hxz++An8x50yc9pl/w999cwEWP3fQuFloqMdHevC1v38v3vWBM/HTbRMQ9A0YzdKPyRPib2LJrBmY8a5LcX8+3W2AzNQuSiE+tceXvSMBEiABtE+IFxc+hXhxx4aetYHA2AO4/N0zMOOcXyC6qqMN3kwrkxTi02q42VkSIIHpSIBC3Bx1CnGTCVOmMYFdN+GfZszAP1ZCm1JOYyD5dZ1CPD/WtEQCJEACbSFAIW5ipxA3mTBl+hI4sfpinDbjfbhmsyXsaPpiyaXnFOK5YKYREiABEmgfAQpxkz2FuMmEKSRAAvkToBDPnzktkgAJkECuBCjETdwU4iYTppAACeRPoJBC/NCeMSyddxzXnd0P9Yp7cSzSRB4/JEACrSFQr5XhOA4qtda0x1aKSYBC3BwXCnGTCVNIgATyJ1BIIX7LZYNYv2QYI8PBFlfieN2SISy5XN9ANAZYvQKn5KBSt+fXyiWItwqGv2VILaLePKjOgXrFccuWPbGSWL9WjrSr2VEN2N3yUuuoOFod108H5VrQGbv9EoLm66iVpc9uH51ywCKTf2b9wHwr/EsAkOpfs/aD8QTM/oWvleT8ZP7p/iX0Pves6LWduwM0mAsBCnETM4W4yYQpJEAC+RMonBAfPQXMP6sf/X3mzHf/gTE3b/RkCqgUIS6EWL1eR00IbKeCWl2cqzaFEHfgOErYCmGln4tySfXhtm22X4dvQpmy/npCrlwL2vFEtRLarhDU8oUt8VUfKa6keBfpFffGIxCiqny4/4F/4fo178ZA1Z+4f8rPuN9k/9Ltp46Pe2OVwCclP5l/Fv/ies50EpgcAhTiJlcKcZMJU0iABPInUFghPnDIFOIiTYj0iQtxCdoVnE4lIpClEC8L8SuUrxD1ThllX5gHg2Svnz0/KKkfBUIuSJVpjjdtq4RgkK8fWerXa6iUtVlxr7jdf1t9/QmDJR+N+Kf7mnyc2b+IfdVq5vr1Gsp+eIalf6F8oGH+Mf4pP81fc0beeCJRrqDiP/UQNxVmK/YUr3+hJ0LRp0fi5k17olJyUA49MphM/+xeM3ViBCjETX4U4iYTppAACeRPoHBCfPDIOObP7sfQQBCWorAMD8q8gcOmSFdl3N/UGXFZ2i7UZGhKuSYEeMWdNXcqclY4Knbs9QNP0vKDkvqRKQTdON6SmqFPE4JevnGDoduQx3b/wqLaLRniOXH/TE/sKUn+uTdJXrUoH9VaUn11U6PKBr+W/geZ7lGjQjzOv0iz/qnrd0ncOHlPXlxRHHkiIcRxTeRHn1j4zcQfeO26Tx7EdR4J44rar1dEuFUg1mV+nH3v+piIf/GeM6dJAhTiJjgKcZMJU0iABPInUCghvnLhEG69chAb7hyOJSHyRBlRNvYTEo6xpWTstyFYlRAXgkKEpAgBIsVFrkI8NGNZgqMZd4VgJF+E2ATBKWKGV8aZi9n8SjCdGoKRWaiGeCqhFY5jb8y/kBuxJ0n+heP7w3xUg0n1JyzEY/mn81H+2X9l/ZB/Nv7a9eA+tdGEsr3dmNRQ27KMe32Frie9bs7+6aZ53DQBCnETHYW4yYQpJEAC+RMolBDfeJcU2T13xAtxkSeEuCgb+7GIC1tZu1BTQhyo1yooi1hsBGl6O/b6QYm0/KCkfuQJOS8G3I3vjogiNSOrYqnlr96GPHZnS8sOHCEaI22IEnb/sgstYXci/pkeh1OS/BMz4nH2VStJ9aXQleOqRL3Utnr/bfnBEwk7//TxU/7Zf736UaHvPxEJ2vfrZ7ze/fL6ga2umyZutBw4IqSpIv4NqI/Ox0vzyuv89CcWE7pRUGb5OyECFOImPgpxkwlTSIAE8idQKCEuuv9Wf3xoighXEWErokzixyYuLBXsQs0mum1pcUI2MGRvP8i3H0WElruLSBAWIOooIW6vb0kNCaUg3+5fnNBSPkyCf4FLoaMk/3yhZ+GjGkmq7884u2Ea+vhG+m/kp/FP56P8s/8q+8FiXSX4ZflI+yIx4/VutRdbt45aTa4tEAuXS6VwaIzPz7evQqda7J/VaSY2SoBC3CRGIW4yYQoJkED+BAonxNWuKe1drKlEhRoQXaiptJyEuDcb7wvPVCEuFx7qkQvw2giJp5QZcd1eWOhFhZZko5dv+EYhQBo6ShLSgT3TvmokW31RWh/faP+i+Q0Kccv4Kf/sv9K+MVb+rjgW/2LFtNg/JuVjqytuPkLVTD4h/0JtNOZfyAxPJo0AhbiJlkLcZMIUEiCB/AkUT4iflNsXHjtoLshUu6acGkkBpYSBu5hNLnhzZxX9at4iuNjtC9OEeFJ930hM6EeQbz8yhYwrKP0ZyUAIqplS9Svb8+qLmGGv/3JPcTWjHVi1C1XvBiN2sd1E/Qvspx3Z/Uu3X5TtC1X/ouOn0uN+ZXm1GFLtUBKekQ5uROJmxL0bFD+kJcaa+reiKW8ZI172tvWso6nFmvqdoMVGjDdMniQCFOImWApxkwlTpjeBk4NvYmB4dHpDaEPvCyfEBYNFFw+4b9TUBbc43nT3MBZdMpCOyf3DH15M6MYBe+LAFRpGDK4SOvrsnzIVTkuur+qkz5gHJfUjU2jKGekS1Cyk3b5+8xDZfs7dmk9TWp45u9AVmUr8eQwdIcqUj63wT7WV/Gv3r1n7anzt/Qvtzmfpv56fzD/dv+Rep/kX1370Rssr596QJVi0imSxE8tEty/U9lO02kjwiVktJ0AhbiKlEDeZMGUaE+j9KRaePwPfuOQqvJQ22TmNMU1G1wspxPftGsVtVw+6e4arV9yL/cNvv3oQIq+jP3E3CaVAaHd0/9KcZ//l4lnjRrBN458QY582lMzvHAIU4uZYUYgfxmPXzUDXF6/yQtGi52FmgzuW4oEVq9GXskQrXGviZ+l2o35Hzyfug72FqJ3ouVdr21X41pwZ+MZ5bzO+XV//MfrsjU8o9cDKfw7Z6przPtz7QkqTfb/GHV95F77/jevxxqmUsgnZ/ffNRtec2Xi8P6GQmxXlFT1Pqz918gspxKcOXntPVCiJ8WsvPuVSjX6rfa2nXE/tHWp7/xVv90VF9h117J4ztVMJtE+Ij+Ot/TvxxINrsWr5cqxYvR4PPf0KDhdgxo1C/Di2/N8Z6Cpfg93uhR09D1/t+7r/AV1zLsRzOc+FpduN+h09D/ejdWdRO9Fzz5IrxP8It/96KR7viXwf24a3WueQ39Lwq6sDW7/4BL6dRYj7tSd2kF2IR3lFzyfmRyfVphDvpNGiryQwYQJB7LgI13LK+v7zE26cDRSUQLuE+Mj+Z1CrLse6R5/H7t5e7Nn1HDav6caynudxNGdBFx0aCvERPHvDDHRd+h287sKJnoeJpQvicPlWnaXbjfodPW+VJ9F2onai5155V4j/NdbuitbP6fyFb+D7hRTiUV7R85z4FMAMhXgBBoEukAAJkMBkEmiPEB/Cyxu7sWzjy6FZv/FjO9BTXY7H3mjvtDiFOPDcT38PXVdci17v4oue49XrcX1MWIUItYiGVowdfhgbFv1vXH/RO/GtL/4ZbvjBXDzxylEE0SzHsPOWv0TX+f+Mjb3andiJR7D8shmYN6+CfSK5QbtRv6PnoX9bRx7AXOe9ePeffRw3PzexazBqJ3ru2s0oxNVM8mO778Pq//hbfP8L78UPu87H+md7oZFymxzpvQfLr/t7XHvhH+C6ri/i4Zc2Yc1lM/Ddn28IddU9SRPiu67DD7Ux7przTlS3mc0AYzi67Qbc/e2/wfzP/z66LvhD/OCaz2D1oy9Bp9hIP6K8ouc2L6ZiGoX4VBxV9okESIAENALtEeJ9eHplFfe9cFTzRBwewtbVVazdfiSSnu8phTiw42fvRNfV12Ofhz56jmNbsGXtz7F57c9Ru/4D6JrzIdxTk+cibfPmp4ObrBNPYtWVv495Xz0by5ctxuZV1+FX33gvuj5/Bh7SRffgevzqyzPwnR/8AjKM+CR67/lHfOO8f8B9uz1J14hdZOiHfmltvgZ/OGMG3va2t2Hm4tf0nIaPo7yi526DDQnx/4XFP/gwlv7yp3ho5bdx+xXvQNdnP4INe7Sg7RMPoXrpDHRd9C/4bXUxHl5xDZZ88wzcdGmTQvzY03hGhcz86hx8L06I778VN18wA9//5mW4f+2dePy+m7H6+v8X8+b8BVY8H7zpXArxDP1odNwaHp3OqUAh3jljRU9JgARIoCkC7RHiR/Hc2irufaIXmowARl7Fw91V9Ow41lRfWlWJQrwxkmkhIkObL8C8OR/Ghr3a/O3wBtzz5Rm49s5HQsYGH78I/2fOH+NXTx7B+P6fY/EFv4cf/3ILToZKyZM0u5YqyUlvbcXiL87Cv5x9FZa/Zm6TnFy5iVxXiP8FVjzdi6MH9e+beEubSpYC9t34z4eC5Zvj+xbjpvNm4Ee/fc43fOrJSzBvzgfQvS2ILh97YwEqc5oU4n7LYsO07+M/YoT4iYfPR9ecf4bmHjC6A8/89jps3KqeqQDWfuw3+6Gbne7HFOLT/Qpg/0mABKY8gfYI8XEc2b4e1WoNj77ch4GhExjqfxMvPrwa1epatHlCHBTijV32aYL4jV+djq4Lv4JtIbG5Exv/zwx0/eCuYObcNduHpxe8D11X/DtWVd6Lriu6sHvY7k+aXXutAqW6QtzcNaVrzvuxamfgpxSw/4KHDwRpwLNYLUJ2bl7rJx5efQa65szBMyFej2PFxZMrxMeevhzfmvMnuOvBXTgRxBr5fqmDrP1Q5fkLUIjzKiABEiCBKU6gPUIcwOgx7H7iPqyoVtHd3Y3ulSvlcSRuvB34KcQbo54miHcv/fPQlnn6dn1d8+/AYNTc4btx6xdmoGvOn6G6Nf7pSJrdaLOFO3eF+Pvxy3UbsHOb/t2MPg2KFLDRbf92YP1VM9B102q/W30rPoSuOZ/DNm02HdjafIy433LyjDhObceGb/+hHOPP/RGuv+ZM3LH4e9j83J7QE6+s/dDNTvdjCvHpfgWw/yRAAlOeQNuEuEf21NAxHD06gIMvPoDu6mo80xcKVmkLfwrxxrCnCWIhxLu+dD42hcSmJzxfiYQnARh56fv40Xm/j2+c99+w5L7XtAWdYb/S7IZLF/CsoRjxDEL83o+ga84F2BoS4k9jdbMx4jqyhNAUt9ipw9j//GpsWXcj1t55Be6c96f4xpw/RfXZ4EWLFOI60GzHFOLZOLEUCZAACXQsgXYLcRfcSC8eX1nFis27EXqq3iaqFOKNgU8TxG5oyuevwEsJYQu+xZGtWPO138e3vvdTPPWLv0HXFz+FJw/aK6bZ9dss6kGLhfjwQ+eha84/4IEgLBsY/A1uO29yQ1OseMefx7qrZuCbi2pQ0fYU4lZSiYkU4ol4mEkCJEACnU+g/ULcixfvvh8v9tsFV96UKcQbI35w1f+HrjnnRWKTgzbeevh8zJvz37FqZ7CDBk4+i4cXfQ73bNCCoTGCPb/9J3zjPAf3vzoCHF+PX10yA9+7/tfeLipBm+IozW64dIazoW342ZdmYeYnr8a9ryv5mKFes0VaLMTRdytuPn8Gvv/9a/HcK3X0vdqDTTf8L1x7UYwQd7cnfCfueVZbRBvXl4QZ8SMbLkRl7lV4PlgjCmAXHuiagXk33uuHp1CIx8GNTy+kED+0ZwxL5x3HdWf3Q73iXhyLNJHHT+cQqNfKcBwHlVrn+ExPSWCqEWi7EB/ajYeWV7H6qX3+H+x2M6YQb2wERl+ch+vmvAOVm36Eh70tDTc/uSPY6eTE41j577+Prov+Gb/57WJsXn097vn2+9F1/gex7uUTvrFTry3AwvNn4EdLH/frDmz+HL43531YujnYMURVSLWrCmb9beH2hZlMukI8/c2a2QXsCbzZ8zlcf75cANo15z1YVL0Fy+L2ET/xIO65ZAa+fc2l2HBf8GbPep+8IR6odwdv4XS3L3w7Ft8ZlHvhDam8x175D/zovBm49ntXo8fdvnAx1t7o4Dtz3o07Nr7po8jeD7/KtD8opBC/5bJBrF8yjJHhYOZEHK9bMoQll2urGyzDV684EG8MVF+nUreUmsSkWtm3rXzwf8vTT42q8ZiGXZ/Ei4xNk0BjBNorxEex/+k1qC5/CLu1ydLGetD60hTijTI9ildXfQkLv/JufMN7AUzXfyzFca2ZscMb0XPTR3H9l/4rvnXhn6Ny7RV4+IU3g/jv0Z144JvvQNel/46X9JnV8V48et270HXxhdhmrNtMt6u5kH54pAdf+/v34l0fOBM/Da94TK/bTAlXiJu7pkRfiNSogD15bDf27Hwce/r6MY6nsOorM/DdWx+0enj8pcW4+5t/he964l3YvvsJuU7jtV/+dewiW1HulvvULvMncOCJa7F03un4P+KFPue/B9dd9XHcs/oxDAZSzdu+MD3W3eroNE0snBAfPQXMP6sf/X3mzHf/gTE3b9S22ag/gHXU6+IrX+WduxAXC49d+3XUxE2BU0HNO8/5lsAnwgMSIIHpTaC9QryY7CnEizku9KoJAseruOOzVfhcQAAAIABJREFUM7Bw+UtNVGaVdhMorBAfOGQKcZEmRHqyEFdIk4R4HbWyNnPulFELqWQzP5hYr6PilFAqV1Dx23Bgm/F1Z4OdCkJNu+6Z7ev2VT1XyLuz+w7KyoF6BU6pjLJrW9itoSz8ccpQRRSB+F/TflA3e//s7Xv1tacSpZIT8a2usRNPL7T+pfKZqH92r5lKAlOZAIW4OboU4iYTpnQIgSNPYIv3NszH1lVQ/c4fo+uCf8ZG/Q2mHdIVulnAfcQHj4xj/ux+DA1ozzq8kRoelHkDh02Rbg5mvBCX4RJCxMqZc1dYl8pQgSO1shSHFTdfiEZxrvKV0Iyvr3xRgjoqxKV9IZzl7L28KVDtA75/lZo7u65uGlyx7wpxEXPtiWn3JkL6lHX2329/gv1T/TR+1RMA8VsTNw5hIR7tf70iwnmCMmH/avLGpwn+hl9MIIFpSoBC3Bx4CnGTCVM6hMAL38D3vfCgb3z+T/B/v30RHniu19+5pEN6QTc9AoWaEV+5cAi3XjmIDXfGb24l8kQZUTb5EyfELaJViduoYlYGQvlqRlbJdhGLYopNUdUVlMaMeLp9s55Wx7XliXYRj+6179482KblVR/8X60tlVavoVJWTwWy909VT/y1sHF9NbioVmz+6Xxb7J8yy18SmMIEKMTNwaUQN5kwhQRIIH8ChRLiG++SIrvnjnghLvKEEBdlkz+NCvFSEF7iisdgwadcbKlmbLMLQVNQC4+9+qHQDWlL6WhbvXqtJsNnJkOIh0Bm71+oWtyJRYjLGxf51MEpl1ERM/9+fWk/NLvvjYfk02L/fLs8IIGpS4BC3BxbCnGTCVNIgATyJ1AoIS66/1Z/fGiKCFcRYSuiTPqnWSEu65XKMizEXXgZCq/ILgRtgloJcccLO1ELO8Wv+tjreblTQYi7XamjVpMz8Y6IcY+EnlCIq6uBvyQwcQIU4iZDCnGTCVNIgATyJ1A4Ia52TZm8xZpxM67ejHdo9tUbkNCsbquEeCC8hZW2CnGxw4y/13f2/rl+p12zIXaKZ12bARdp8uZHn/E2hXjjTyTSXGM+CUwXAhTi5khTiJtMmEICJJA/geIJ8ZNy+8JjB80FmWrXlFMjWUApQVnxtxNU0tedcRY7dVgXa3oz4v62g96uJP5iQtVuszHi2mJMb7GkdbFmXAz1hGfETfvWxagqTkagtolpTzyLsB29qDEylroyRlzEpHtbTTazWFM3arFh+MEEEpjGBCjEzcGnEDeZMIUESCB/AoUT4gLBoosH3Ddq6oJbHG+6exiLLhnITqlekVv7qXhsX7yZ2/fp2wcK4eluCSjqiW0BWxqaItw37QfbB8Yt8vS63QIhnmw/642GV07coGj3JMbgWEWy2AlF2z6yqe0LNaNWG4YnTCCBaUuAQtwc+qILcdNjppAACUxFAoUU4vt2jeK2qwfdPcPVK+7F/uG3Xz0IkcdPAgFXlEYXmsrzULhHQhMtzXLfNKrCSlraMhsjARLISIBC3ARFIW4yYQoJkED+BAopxPPHMLUs6gtAQ8d5dVOFnLix5+Kpgu2lRnk5QzskQAIU4uY1QCFuMmEKCZBA/gQoxPNnPsUtejH2XjiQU6YIn+IDzu51AAEKcXOQKMRNJkwhARLInwCFeP7MaZEESIAEciVAIW7iphA3mTCFBEggfwIU4vkzp0USIAESyJUAhbiJm0LcZMIUEiCB/AlQiOfPnBZJgARIIFcCFOIm7k4T4mPDx/Hm4bdw/JTZF6aQAAl0LgEK8c4dO3pOAiRAApkIUIibmDpNiB/rWYa3n1nB2z/1c3z61pfRa75qw+wkU0iABApPgEK88ENEB0mABEhgYgQoxE1+nSbETx3cjw2P78BtP1mK98xaiPPuP252iikkQAIdR4BCvOOGjA6TAAmQQGMEJkWIjw9j//YHsbJaRbW6Ga9ZQybGceLQK9iy6T6suXcFVtbux8PP7sbRTG9HbqyPjZbuNCHu9+/kTlw4awE+dPcBP4kHJEACnUuAQrxzx46ekwAJkEAmAi0X4iOHsHPzanR3r8FDG9fHCvHxgZewYXk31mx+Drt7e7HnlW3YuKqKezfvxlAmzyevUMcK8f1bcMasBfj8hgLczUze8LBlEpg2BCjEp81Qs6MkQALTlUCrhfihbTV0r9mMnQdHMPLq5lghfmjbGlRrW3FIi2c+uXcLVlbvx86B9o5GpwrxsS3r8Z5ZS/DDenv50ToJkEBrCBRSiB/aM4al847jurP7oV5xL45Fmsjjp3MI1GtlOI6DSq1zfKanJDDVCLRaiB/r3Y0DJ8ZdTPFCfBSvPVJF9dE3IEt6VId3YWN1OZ7a117KnSrED9buwWmzfoNfHG0vP1onARJoDYFCCvFbLhvE+iXDGBkO/vctjtctGcKSywcTe16vOCh5b3UUv04l52mDWjlkX/elVJ5+alSNxzTseuJ1ykwSyJNAq4W47nu8ED+FVzdXUX18jyw+Pi4F+chubKp2Y8tevZX8jztViI/s2IS//dgifOae1/DC3n709h1D78EhnMgfIS2SAAm0gEDhhPjoKWD+Wf3o7zNnvvsPjLl5oyeTel5HvS6+8lXruQtxwLNfR03cFDgV1Fx/6sj5liAJEvNIgASmEYG2C/GRN/DovcuwastejFKIT/DKG8PuDavxd7MXyO0Mz6zgtM/04MkJtsrqJEAC7SFQWCE+oAcVemxEmhDpyUJcgUwS4nXUytrMuVNGLaSSzfxgYr2OilNCqVxBxW/DgW3G150NdioWAW62r9tX9Vwh787uOygrB+oVOKUyyq5tYbeGsvDHKUMVUQTif5PsZ++fvX2vvvZUolRyIr7VNXYliHy/f26jk+mf3WumksBUJtB2IY4xjAwew/GRcYBCfGKXWt82nPOpCj74gydQfXQXHnxqNx7cdhCMVJkYVtYmgXYRKJwQHzwyjvmz+zE0EISlKDjDgzJv4LA5W67KBL/xQlyGSwgRK2fOXWFdKkMFjtTKUhxW3HwhGsW5yldCM76+8kEJ6pDGFzPmbviMEM5y9l7eFKj2Vb4QpzV3dl3dNLhi3xXiIubaE6vuTYT0Kevsf7L97P1T/TR+1RMA8VsTNw5hIR61X6+IcJ6gjMyP49sC/wyHmUACU5tA+4W4xpdCXIPR+OGhtSJG/G7ccbDxuqxBAiRQPAKFEuIrFw7h1isHseHO4VhSIk+UEWWTP3FC3CJalbiNKmZlIJTvCUF9CjyUryp5gtqYEU+37wrRUD2tjmvLE+0iHt0r59486D4FbkSOtLZUTsj/7P1T1RN/Q23Lkq6vof7pLeTsn26axyQwRQm0R4gnLdZchi1vthd2p8aIizdsnjZrKRa3mV97R4/WSWDqECiUEN94lxTZPXfEC3GRJ4S4KJv8aVSIl4LwElc8illw/atmbLMLVVNQC4+9+qG2pR2lo2316rWaDJ9pkRAP9023n71/yfy9XIsQh8/XgVMuoyJm/v3G4oS4Gp8W++fb5QEJTF0C7RHiQPz2hffhxWPt5d2pQhzPb8AHZt2Euc+0lx+tkwAJtIZAoYS46NJb/fGhKSJcRYStiDLpn2aFuKwndjiRiz6j4RXZhaBNUCsh7nhhJ76NuiZFvUWeQYrW2xYJ8Xj72funeRV/aBPibuk6arUaKmWxvaG4EVChORTi8TCZQwLNEWi1EB/p78PevXvd7xtbe1Ct9mDbHnn+5tFgkkS80OcB94U+20Mv9Fmx6RW0+wXtHSvEDz2Dj89agHPWtJtgc9cia5EACYQJFE6Iq11TJm+xZpzQ82a8vdlaNTvt4gqJyexCNVmIh2W2EOTqY6/n5bZMiAf2RMuB/ez9c+spp+N+Q+y8QiJ2PFRe3vxI5injo54o6ANksxFqnyckML0JtFqIi5nu7u5u63d5aF9C8Yr7l91X3K++dzlWrFqHTU+/gsMFeClkxwrx0Z24aNYCOHf1Te+Lmr0ngSlCoHhC/KTcvvDYQXNBpto15VSm/4krQVkJZra9QXOFrtipw7pY05sR97cd9HYl8RcTqnbV0k539aWxIFGYihPUYftqhxA1Ixxfz3V/wkJcWwzqLUYNLxbN2j+PU0mFjMT8i7CIZBkjLnaq8baabGaxJoV4DHAmk4BJoNVC3LTQeSmdJsTHho+jd28fNvz6HvzJrIW4oCdtnVTnjQk9JoHpSKBwQlwMwqKLB9w3auqCWxxvunsYiy5p4L3I9Yrc2k/FY/viTYlfLwY8un2hXk9sCxja+SOrUE0S1KZ9fevBOAHvXqAtEOIiPEbtxOLGioe2PszaP6+cuEHR7kmMf0QWIQ7UUHG07SOb2r5QM2q1YXjCBBKYtgQoxM2h7zQhLhZpvl3sGT7rRnzw+u3YPWr2iSkkQAKdR6CQQnzfrlHcdvWgu2e4esW92D/89qsHIfL4SSDgilLvBkPdgHi/Wbc3TGi98Sz3TaNqoWvj1VmDBEhg4gQoxE2GnSbETx3cj01be/Hc/hPgX0FzPJlCAp1KoJBCvFNhFsVvfQFo6DgvB1XIiXi7qfuyIdtLjfJyhnZIgAQoxM1roNOEuNkDppAACUwFAhTiU2EUC9WHIHZchL04ZYrwQg0PnZmWBCjEzWGnEDeZMIUESCB/AhTi+TOnRRIgARLIlQCFuImbQtxkwhQSIIH8CVCI58+cFkmABEggVwIU4iZuCnGTCVNIgATyJ0Ahnj9zWiQBEiCBXAlQiJu4KcRNJkwhARLInwCFeP7MaZEESIAEciVAIW7ibrUQNy0whQRIgATSCVCIpzNiCRIgARLoaAIU4ubwUYibTJhCAiSQPwEK8fyZ0yIJkAAJ5EqAQtzETSFuMmEKCZBA/gQoxPNnToskQAIkkCsBCnETN4W4yYQpJEAC+ROgEM+fOS2SAAmQQK4EKMRN3BTiJhOmkAAJ5E+gkEL80J4xLJ13HNed3Q/1intxLNJEXl6feq0Mx3FQqeVlkXY6jQCvkU4bsenpL4W4Oe4U4iYTppAACeRPoJBC/JbLBrF+yTBGhsd9IuJ43ZIhLLl80E+b7IN6xYF4O2S5KSFeR0W83r3p+pPdu5T26xU4Mb7XyrJfom/6V3BSzFS6U6mnGOrsbNXf5q6Rzu47ve8cAhTi5ljlIcRHR/rQd6w3+L51HMFfNdMnppAACUw/AoUT4qOngPln9aO/z5z57j8w5uaNnuyAgXKFrAPHKaEjxWiaEC/XUK/XQ185KipNvuq+I/veAZcXXSSBRghQiJu08hDifc98FB+58Xf874dX/BpDpitMIQESmMYECivEBw6ZQlykCZGeKMRdAVlGuSxmsx2UazWUxcy0U0YwOVtHzc33ZnRDeeasbni205vpLldQ8dsQdiJXUa2MklNBTcyqOxWE54WT7QON59d8A8o/zSHvpkD2X+XH+C/8jsx0q3PVR3dGXJ1Euh2cJgnx9P7pbCs1MTvvaOMXWLEfJbWf0n97g1qqVz/EKOpbXbs2xDXmoBxcfLCNrzl+MeOjecJDEshKgELcJJWHEB/pfwpP7n4AT+7+Fa6/owQKcXMcmEIC051A4YT44JFxzJ/dj6EB8wHe8KDMGzhsinR/IJXorHlizCmjVpfiSc3OytAKEfstZ28rbqhFGYF09WZ1XQEYDU1RQkyIb1Gu5oWg6PUBX6x6NwZB20roq/pCtAmxFtSX4Q5Z86P2ldDULComrlhP99+d6fb7rma4faUf9M2HbjuIF+Jp/MP9FzdSTkNCPFw/yje9/7behNL0JwGWmwRpX9z4eewq4uYmEOth/2LGz72JjL++Qv7whARSCEyKEB8fxv7tD2JltYpqdTNeOxXjRNZyMdUnKzkPIR74/hp+9UsK8YAHj0iABBSBQgnxlQuHcOuVg9hw57Dyz/gVeaKMKGv96MLXm5UWEtIXxrZKIaGqFXDTY4S4PiNs1JdiTxaRgjQoLvPUTYFrTYj5srhhEGfN5Oszxp7QDAwK5a8J2bR8r//Wvss8KaTD8eH6jYRXCuVSxrCcNP/cWfpAyHoexvxk41eK5RPTbFxyyHdZyOVjPAVRDdj8a2J8VHP8JYEMBFouxEcOYefm1ejuXoOHNq6PF+JZy2XoQ6uLUIi3mijbIwESaIZAoYT4xrukyO65I16IizwhxEVZ68cVRt7scpwQ90SmCrmQvxah55XTNZsSyolCLiLOhDALhLdFiIU60kR+yE9ZP96/tHzPmVCbIQf9m5pwjHi4DBA/Iy5vDKJCXvG39D/CM2opfG6pHyqQsf+hOgknNt88dmIW3CmXUanUtNAki38h1i32L8F1Zk0fAq0W4oe21dC9ZjN2HhzByKubY4V41nLtGAkK8XZQp00SIIEogUIJceHcW/3xoSkiXEWErYgysR9X1CQJcSkQhVD1haQlvMBtPySQlMV0oSRDDyJC058htQgx1bQ06oa6BMI9lBkzYy5mVNXMfZp/afmePWvfZV7i0wXf3Tghnsbfwsf1RQl130DMgaV+qGTG/ofqJJzE+lZHrSafdIgFu8ETA4t/IdYt9i/BdWZNHwKtFuLHenfjwAn5/+EkIZ61XDtGgkK8HdRpkwRIIEqgcEJc7Zoy0cWaboS0bUY8JHo8HHFiylbWCx2Jn3EOwmACoV82QkNCQrsu46DlfuU2oZaW30hoQ0ahZ+275DUhIW5rN8Tf4l8LQlNEnLnON2n89H8kQWS8nqodh3z30kVsuFZEPR2QT1Zs49vI+IUa5gkJZCLQaiGuG00S4s2U0+tM5jGF+GTSZdskQAJZCRRPiJ+U2xceO2guyFS7ppwaSeieK4wyzIiLHU3cxXTeriraYjqoRXbGgkVh1yIUQ2JMzviGw1nCaeHFetHFhI0u5owu9ovW9/oXmZFPF6JqRjt4cqCoZxPiilMlePLgNuDNiCfwd9svqV1uFJ+sM+LR/qv6ajGs8ituMavfSzfGXYQthcdS5Xu/obGXaa7/3iJh92asmcWaulGLjYgXPCWBRAIU4iYeCnGTCVNIgATyJ1A4IS4QLLp4wH2jpi64xfGmu4ex6JKBZEqpQlxo6Yrc0lBsQSe2LgyFpnhCLbQ9nRdm4lTwUpoQt4qmqPhL2l5PdK/x/GD7O4knuj1jkB/1RfKwbQ9Yr4iZfBViEwjhbEI8wlm0o8RlIn/hv7o5krbLFX3GOHn4ZW4Sv6z9V9eBmkmPsWsdb3FzJF8GpdYfNL59YdqNQow/TCYBCwEKcRMKhbjJhCkkQAL5EyikEN+3axS3XT3o7hmuXnEv9g+//epBiDx+pgkBFeKhi133WN0chH9D4T55IWoobCYvp2iHBMIEKMTDPMQZhbjJhCkkQAL5EyikEM8fAy0WjoAKD6rX5UuR9H3WtTw/Dl+J9jw64tuPhv3kYZw2SKBxAhTiJjMKcZMJU0iABPInQCGeP3NaTCWgwkLUjLflzaWpbUxWAS/G3QvZccrRt6ZOll22SwLNE6AQN9lRiJtMmEICJJA/AQrx/JnTIgmQAAnkSqDVQnykvw979+51v29s7UG12oNte+T5m0eDdzxkLZcrDM8YhXg7qNMmCZBAlACFeJQIz0mABEhgihFotRA/tG0Nuru7rd/lW/b69LKW8yvkeEAhniNsmiIBEoglQCEei4YZJEACJDA1CLRaiE8FKnkI8dGRPvQd60XfsSfw86UlfHjFrzE0FeCxDyRAAi0jQCHeMpRsiARIgASKSYBC3ByXPIR43zMfxUdu/B3/SyFujgNTSGC6E6AQn+5XAPtPAiQw5QlQiJtDnIcQH+l/Ck/ufiD47n8T5qvqTN+YQgIkMH0IUIhPn7FmT0mABKYpAQpxc+DzEOKmVaaQAAmQQJgAhXiYB89IgARIYMoRoBA3h5RC3GTCFBIggfwJUIjnz5wWSYAESCBXAhTiJm4KcZMJU0iABPInUEghfmjPGJbOO47rzu6HesW9OBZpIi+vT71WhuM4qNTyskg7nUaA10injdj09JdC3Bx3CnGTCVNIgATyJ1BIIX7LZYNYv2QYI8PjPhFxvG7JEJZcPuinTfZBveKgVCqh3JQQD94O2Vz9ye5dSvv1CpyYvtfK6o2X4V/RT8VMcBNfp1JPMdTZ2aq/HTnGnY2e3jdAgELchEUhbjJhCgmQQP4ECifER08B88/qR3+fOfPdf2DMzRs9mT+ohi26QtaB43SoGE0T4uUa6vV66CsZqTT5KvipLsQbvi5YgQTaQIBC3IROIW4yYQoJkED+BAorxAcOmUJcpAmRnijEXQFZRrksZrMdlGs1lJ0SSk4ZweRsHTU335vRDeWZs7rh2U5vprtcQcVvQ9iJDF6tjJJTQU3MqjsVhOeFk+0DjefXfAPKP80h76ZA9l/lx/gv/PZms6O/qo/ujLg6iXQ7OE0S4un909lWamJ23tHGL7BiPzLbN/nE9N/eoJYaPOkI+ER9q2vXhrjGHJSDiw+28W2df5qrPCQBjwCFuHkpUIibTJhCAiSQP4HCCfHBI+OYP7sfQwNBWIrCMjwo8wYOmyJdlYESnTVPjDll1OpSPKnZWRlaIWK/5extxQ21KCOQrt6srisAo6EpSogJ8S3K1VARQr+k1wd8serdGARtK6Gv6gvRFq4vwx2y5kftK6GtWVRMXLGe7r870+33Xc1w+0o/6JsP3XYQL8TT+If7L26knIaEuKwvbryk7/KmS41Pev9tvQml6U8CLDcJUfv1iri5CcR6tH/h66cF/oWc5QkJABTi5lVAIW4yYQoJkED+BAolxFcuHMKtVw5iw53DsSREnigjylo/uvD1ZqWFhPSFsa1SSKhqBdz0GCGuzwgb9aWYkkWkIA2Kyzx1U+BaE2K+LG4YxFkz+fqMsSfkAoNC+WtCNi3f67+17zJPCmnvaYI/e66Erlcf8UJclfB/0/xzZ+kDIevXsx7Y+DXRf2vblsSQ7zLf5WM8BVF1c/ZPmeXvtCZAIW4OP4W4yYQpJEAC+RMolBDfeJcU2T13xAtxkSeEuChr/bjCyBOFcULcE5lBaIEMHwhFD4jGvXK6plVCuaQnRsVY5FwIs0B4W4RYqCNN5If8lPXj/UvL95wJtRly0L+pCceIh8sgSYh7bdv5W/of4Rm1FD73+uffIAQ3DHLIMvY/3Gj8mc03v38OnHIZlUpNC02K65+64Wuxf/GeM2caEaAQNwebQtxkwhQSIIH8CRRKiIvuv9UfH5oiwlVE2IooE/txRVCSEJcztUKo+kLSEl7gtu8JKl1zZxHiMvQgEICu4PRnSC1CLNSZJvJDfqYJubR8z5lQmyEHfSEeTo2exc2Ip/G39N/1pdEZcW18vVAS6WHG/ke7E3ce61sdtZp80iEW7AahS3H9oxCPQ8z0iROgEDcZUoibTJhCAiSQP4HCCXG1a8pEF2u6EdK2GXGbwIwTU7ayXuhI/IxzEAYTCP2yERoSzJCLmXcZBy33K7cJtbT8RkIvMgpRa9/lBZoY5uNfwzFC3NZuiL/Fv4mGpgjEdRXjbmk/ZN/vgHugaoVTtTNbXSH8tSLq6YA+Ix8e/0bGL9QwT0ggEwEKcRNTVIiPjRzEgeOHMZSwBMlshSkkQAIkMDECxRPiJ+X2hccOmv83VLumnBpJ6LQrjDLMiIsdTdyZUm9XFW0xHdRiPGPBorCbJuSkAA3PoofTwov1Wr1YM7oY1OtfZEY+6UZC0lVCOphZVtSzCXHFqRI8eXAbkO26O8rE8HfbL6ldbhSfrDPi0f6rHVRUDLvyK24xq99LlL3wlvBYqnzv1yLEXf+9RcLuzVgzizV1oxYbES94SgKJBCjETTxRIX78hX/DR278HXxk0V/ha5tq6Et48Gq2xhQSIAESaI5A4YS46MaiiwfcN2rqglscb7p7GIsuGUjuaaoQl7Hf7paGQmiJrQtDoSmeULPEGAvx+FKaELeKpqj4U+LQC1+JbJ8oxH7S9oq2/GD7O4knWj/Ij/oiedi2BxS7fYiX+shY7kAIZxPiEc6iHSUu6xW5paSVv/Bf3RxJ2+WKPmOcPPwyN4lf1v6r6yDlzarW8RY72ciXQSl2jW9fmHajkIUDy5CAJEAhbl4JUSE+OrgNT7yyHN33fwhnLPw9XPP8QbMSU0iABEigxQQKKcT37RrFbVcPunuGq1fci/3Db796ECKPn2lCQIV46GLXPVY3B+HfULhHXogaCpvJyynaIYEwgUkR4uPD2L/9QaysVlGtbsZrp8I25dk4Thx6BVs23YfV967Aytr92Lz1NfQX4KVsUSHuez96L76zsIQvPLbDT+IBCZAACUwWgUIK8cnqLNvtIAIqPKhely9F0vZp92PvtTJuWl7d8+1Gw37ycoB2SKAxAi0X4iOHsHPzanR3r8FDG9fHCvHxYzvxwLJurH3keezu7cUbLz+LB1ZWserR1xGz71VjHZtA6Vgh3r8YFy8s4ZsvHp9A66xKAiRAAtkIUIhn48RSuRJQYSFqxtvy5tJc/dGNeTHuXsiOU46+NVUvy2MSKAaBVgvxQ9tq6F6zGTsPjmDk1c2xQrzv2VWort2GI1q89Yndm9Fd3YCX32ovmzghPrb7Cpyx8C9w6/72+kfrJEAC04MAhfj0GGf2kgRIYBoTaLUQP9a7GwdOSHUdL8RHcfT1F7FjTz80HQ4c3oY11dXY1uYQ7DghfmTbJ/DhhR/DKk6IT+N/Mew6CeRHgEI8P9a0RAIkQAJtIdBqIa53Il6I66WC46FXNqG7exN2tzk2JU6In9z7PXzmxj/A3Cc34ZWjb6DvWC/6Bo8iabOuoHc8IgESIIHGCFCIN8aLpUmABEig4wgURoiPvIktq6tY9URv24VtnBAHRtH74pcw56aS3M7wxt/Bh392DZ7ruFGnwyRAAp1AgEK8E0aJPpIACZDABAgUQoiPHsNLm1aiuuYJ9LZ5NlygjBXix36Bq27+L/js6htx38v348ndD+DJ13ciZePcCYwOq5IACUxnAhTi03n02XcSIIHdHti1AAAW9UlEQVRpQaDtQnz8OF5/bA2qKzfipaPF2II2Togf3XY2PrzwDCwfnBaXBjtJAiTQZgIU4m0eAJonARIggckm0F4hfgL7nl6P7uU9eP5QcSKt44S4eMPmhxd+CL85OtmjwvZJgARIAKAQ51VAAiRAAlOcQPuE+Ekcev4BLF+2Hs/uP1EoynFCHL3zMHvhO1F5rVDu0hkSIIEpSoBCfIoOLLtFAiRAAopAq4X4SH8f9u7d637f2NqDarUH2/bI8zePBgHgx3dvxsrqMtz39G7s278f+7XvkePtDVGJFeKDt+GyhSVcta1P4eMvCZAACUwagUIK8UN7xrB03nFcd3Y/1CvuxbFIE3lF+dRrZTiOg0qtKB7Rj0YJcAwbJcbynUig1UL80LY16O7utn6Xb9nrI9q3ZYW1jKi78eUhv1w7DmKF+NgqfHdhCRc8+nw73KJNEiCBaUagkEL8lssGsX7JMEaGg9dAiON1S4aw5PLirKCpVxyUSiWUbUK8XoETl5dwkak2Rbvi61TqltJ11MrStlvOKcMo1qR939hE6/sNFftA8baOYbFdp3ckkJlAq4V4ZsMFLhgV4mMjB7H/6PN44vGz8bGFv4d5LxwpsPd0jQRIYKoQKJwQHz0FzD+rH/195sx3/4ExN2/0ZAfgb1rI1lGvi698lbpNiEvxKF77LstWykK0lxG6H2javsd2ovU7YIjoIglMFwIU4uZIR4W4WKT5EbFn+MLT8Nk1v0KBHr6azjOFBEhgyhAorBAfOGQKcZEmRHqiEHcFZBlld8ZYiNUayk4JpdCscfKMsit0nQpq3ox3qeSgrE05q1lUNWsdmk2tld2ZbJWn/wblku3LqytOiNdREf0JGgPqNVTK3qz4RO2n1rfZF7P/jjYrX0dFn7GP8Ev/15PER9mvaDbEOKe3Kkt49b0nDnJ8dN9FqTT/Tf9q/oOLifqXtR8sRwLZCVCIm6yiQnx0cBu2vP446v3HYP71MeszhQRIgARaQaBwQnzwyDjmz+7H0EAQlqI6Ojwo8wYOJ/xv0hXiIm7bE0tOGbW6FEdqdrnmziDLMmL2OTqj7M84V2ru7LQKAwnEnjdrXbOHn7gz2n6emuH2lRrS7Mv+xglxyPpOBUGLipD8naj95PpKaGrKVzH3HJL8xI2B1/eKuDmJit2wz/qZz98646+EtHoiUJM3JtEnAnqD0WPll/h1xynsW5r/Yf+i9lvgX9RfnpPABAlQiJsAo0LcLMEUEiABEph8AoUS4isXDuHWKwex4c5g1X0UgcgTZURZ68ebEXdlopjd9QSrK34DJR2uahOSIaEbFvJ+ZbdeC2LEI/Zl+/FCHPBm+UUMuZjpD6ZjfdeQ5FtQSh7Z7MfWTxfiLusQv6jBpHMLa2/GX3Yz3X5S60aepe/J/tv8058ItNg/w2EmkEDjBCjETWYU4iYTppAACeRPoFBCfONdUmT33BEvxEWeEOKirPXjCisvXjpOiHsiUw8b0Wds3RnPiJCs12ow9G6sWBXRDfbZctfnFPuyX0lCXJYQceQiBEQsClU3HD6TidqPrZ9BaPr9c+CIkBnxZMF3LO3AInRDVTLYD5VPOXF9Dc+Iq7ET14Tpv8W/EKsW+5fiPrNJIAsBCnGTEoW4yYQpJEAC+RMolBAX3X+rPz40RYSriLAVUSb244qiJCEuBa6IsXZDMCzhCTYhbrUXEmCRErF56fZlS+lC3Ldos2VLcytktB9bP6vQrKNWk7Hrjohpzxw6YhG6fkfFQVb7oUrxJ24/I0LcLR3nv8W/EKsW+xfvOXNIIDMBCnETFYW4yYQpJEAC+RMonBBXu6ZMdLFmbGhKSDR5wCNibFKFeAb70qs4IS7CUqKLEy1lbXZEw7b0SP9d+7ZyMsOyWFQPzRA26pEZcOlfXGSQ7K/6r03oyj7L/dobE7qpM/HWvif5b/NP739j/qle85cEJpMAhbhJl0LcZMIUEiCB/AkUT4iflNsXHjtoLshUu6acGkkA5QqrDDPiYlcUd9GeircOZkVThbhbTy30EzHiakGm7pcSx8HMu8yV6SKUJM6+LKcEXSWYuXczvHSx+NGzKxeTBv7rdhxvwamY/dfT0+3H+S+0vNjDPFgsKXelCRaPyhhruUjWfeowGYs1dVVvE9Mijt7bGUUv6kEIfix10/yP9t/dxcaf8VfjFr+YNTDOIxLIhwCFuMmZQtxkwhQSIIH8CRROiAsEiy4ecN+oqQtucbzp7mEsumQgmVKqEJezwq54dGOrxWJHfUbTE5qRGPHAqBLC8oU7oTjzSJ16pSzjt11BqAnlekVuqRhj37ellxNlfUUZ2V7PfbunEtp+bUzUfmx9iJ1bwi8UCsfPi51EtPxJ2b4wTeiqcUp586lFiIvFsMn+Z9m+MM2/YJx4RAKTTYBC3CRMIW4yYQoJkED+BAopxPftGsVtVw+6e4arV9yL/cNvv3oQIo+fDibgCl/LTUzsW0Qnua/uvunaTdIkm2PzJNAOAhTiJnUKcZMJU0iABPInUEghnj8GWsyTgL9IVoX4qN+8nFD2xNtL3Zc9BWE1eblAOySQJwEKcZM2hbjJhCkkQAL5E6AQz585LbaVQBA7LsKKnDJFeFuHg8ZzIUAhbmKmEDeZMIUESCB/AhTi+TOnRRIgARLIlQCFuImbQtxkwhQSIIH8CVCI58+cFkmABEggVwIU4iZuCnGTCVNIgATyJ0Ahnj9zWiQBEiCBXAlQiJu4KcRNJkwhARLInwCFeP7MaZEESIAEciVAIW7iphA3mTCFBEggfwIU4vkzp0USIAESyJUAhbiJm0LcZMIUEiCB/AlQiOfPnBZJgARIIFcCFOImbgpxkwlTSIAE8idAIZ4/c1okARIggVwJUIibuCnETSZMIQESyJ8AhXj+zGmRBEiABHIlQCFu4qYQN5kwhQRIIH8ChRTih/aMYem847ju7H6oV9yLY5Em8oryqdfKcBwHlVpRPKIfjRLgGDZKjOU7kQCFuDlqFOImE6aQAAnkT6CQQvyWywaxfskwRobHfSLieN2SISy5fNBPa/dBveJAvJ2xbBPi9QqcuLwEx1Wbol33zY+VuqV0HbWytO2Wc8owijVp3zc20fp+Q8U+ULytY1hs1+kdCWQmQCFuoqIQN5kwhQRIIH8ChRPio6eA+Wf1o7/PnPnuPzDm5o2ezB9UwxabFrJ11OviK1/F7hgKG5Di0UG5JstWykK0lxG6H2javtfTidZvGBgrkAAJTBYBCnGTLIW4yYQpJEAC+RMorBAfOGQKcZEmRHqiEHcFZBlld8ZYiNUayk4JpdCscfKMsit0nQpq3ox3qeSgrAliNYuqZq1Ds6m1sjuTrfL036Bcsn15GcQJ8Toqoj9BY0C9hkrZmxWfqP3U+jb7Yvbf0Wbl66joM/YRfumXucmn5j8YUPYrmg0xzumtyhJefe+Jgxwf3XdRKs3/yfQvaz9YjgSyE6AQN1lRiJtMmEICJJA/gcIJ8cEj45g/ux9DA0FYisIyPCjzBg6bIl2VgSvERdy2J5acMmp1Kb7U7HLNnUGWZcTsc3RG2Z9xrtTc2WkVBhKIPW/WumYPP3FntP08NcPtK0mk2Zd9iRPikPWdCoIW/d67BxO1n1xfCWFN+SrmnkOSn7gx8PpeETcnUbEb9lk/i9aX/NWMvxLS6olATd6YRJ8I6A1Gj5Vf4tcdp7BvUfv1iP/+9eE+kYjab4F/UX95TgITJEAhbgKkEDeZMIUESCB/AoUS4isXDuHWKwex4c7hWBIiT5QRZa0fb0bclYlidtcTrK74DZR0uKpNSIaEbljI+5Xdei2IEY/Yl+3HC3HAm+UvleCImf5guth3Td6QxPgWlJJHNvuxfUsX4i7rEL+owaRzC+uQf+n2k1o38kJty9xk/3P2z3CYCSTQOAEKcZMZhbjJhCkkQAL5EyiUEN94lxTZPXfEC3GRJ4S4KGv9uMLKmz2NE+KeyNTDRvQZW3fGMyIk67UaDL3rtWPV9xny4uzLfiUJcVlCxJGLEBCxKFTdcPhMJmo/tn4GIezVFUwdETIjniz4jqUdeO2HQkfkwlXJOYP9NBN6vutreEZc3cTY/Y8T4uqmp8X+6b7ymASaJEAhboKjEDeZMIUESCB/AoUS4qL7b/XHh6aIcBURtiLKxH5cYZUkxKXAFTHWbgiGJTzBJsSt9mLFqggztoetuLPZQmQm2Je20oW475PNli3NrZDef7dYbP2sQrOOWk3Grjsipj1z6IgSutr4eKEksr9Z7ft0kg/cfkaEuAQQ47/yT7u1CLFqsX/J3jOXBDIRoBA3MVGIm0yYQgIkkD+BwglxtWvKRBdrxoamhESTBzwixiZViGewL72KE+IiLCW6ONFS1mZHNGxLj/TftW8rJzMsi0UjizWFcJad8P4r/bM+OQiVEycWoStS66rFxoSuqmWYUQnWvif5b/Ev1EZj/ik3+EsCk0mAQtykSyFuMmEKCZBA/gSKJ8RPyu0Ljx00F2SqXVNOjSSAckVRhhlxsSuKO9Oq4q2DWdFUIe7N0MqFfiIkQS3I1P1S4jiY2ZW5Ml2EksTZl+WUoKsEM/duhpcuFj96duVixsB/3Y7jLTgNhGxW+3H+R7dPVLvSBItHZYy1XCTrPnWILHaU/sX/1+UvdloJ9S+yWFNX9SEhrNr1+pm2l7ulbpr/Yf9iFmum+qf85C8JTD4BCnGTMYW4yYQpJEAC+RMonBAXCBZdPOC+UVMX3OJ4093DWHTJQDKlVCEuZ4XdLQ3d2Gqx2DE8o5ssxJUQlnHLoTjvaFx5pSzjt914Z00o1ytyS8UY+34H9XJeOIvMi2yv577d05z7Fbt9uPHjTdqPrQ+xc0v4hULh+HkhTrX8FmxfGOweqW5Q4ndt8Rm5ITEpbz61CHERPpTsf5btC9P880eZByQw6QQoxE3EFOImE6aQAAnkT6CQQnzfrlHcdvWgu2e4esW92D/89qsHIfL46WACrvC13MSIHWACtZ1fB91907WbpPws0xIJ5EaAQtxETSFuMmEKCZBA/gQKKcTzx0CLeRLwF8mqEB/1m5cTyp54e6n7sqcgrCYvF2iHBPIkQCFu0qYQN5kwhQRIIH8CFOL5M6fFthIIYsdFWJFTpghv63DQeC4EKMRNzBTiJhOmkAAJ5E+AQjx/5rRIAiRAArkSoBA3cVOIm0yYQgIkkD8BCvH8mdMiCZAACeRKgELcxE0hbjJhCgmQQP4EKMTzZ06LJEACJJArAQpxEzeFuMmEKSRAAvkToBDPnzktkgAJkECuBCjETdwU4iYTppAACeRPgEI8f+a0SAIkQAK5EqAQN3FTiJtMmEICJJA/AQrx/JnTIgmQAAnkSoBC3MRNIW4yYQoJkED+BCjE82dOiyRAAiSQKwEKcRM3hbjJhCkkQAL5E6AQz585LZIACZBArgQoxE3cFOImE6aQAAnkT6CQQvzQnjEsnXcc153dD/WKe3Es0kReUT71WhmO46BSK4pHjfnR6f431tupWZpjODXHtdW9ohA3iVKIm0yYQgIkkD+BQgrxWy4bxPolwxgZHveJiON1S4aw5PJBP21SD+oVOKUSygkiu15xIN7OGFtGCPVSyS3jvsWxUs/och21smxb1Cs5ZWSumtGCKJbof4b+20ypNl2/xZsrDcfrqIjXymtcSiUHZaOcrXUtrUn/tBaSDye7/WTrmXMV79hrMHNLLDiVCVCIm6NLIW4yYQoJkED+BAonxEdPAfPP6kd/nznz3X9gzM0bPZkDqAkLMfkqdadcQ71el9+Mbktx5aBck/UqZSFcy0i4J8jYcgPFmu6/19e6139DYHtCXONSS7uhsbndtH+2xixpk92+xSSTSGCyCFCIm2QpxE0mTCEBEsifQGGF+MAhU4iLNCHSk4W4EnoVVPxZZSFqdbjmjHNNTVbXypHZ2mD2VrWhZiHVrK5K1y0AUogaeVaBp3wWTurHXotC1Dp6H0z/A72r6sf3P9H/DP0XPqbP2KcL8YCX8jmu/+LphCOfCjTpnz++Vr6Nth94bj9K4qP6Gj8+9jZVqlc/8kQhGH9Rrq5d++L6jT5xMP0z+TTrn/KTv0UiQCFujgaFuMmEKSRAAvkTKJwQHzwyjvmz+zE0EISlKCzDgzJv4LAp0lUZX8gK8eHOKNe8UIhgRjk842zJFzPYNRWaomZ4lVIXlrw0v0xgHZ7QViJd/5VhGkqIaXcGbh1PaHpC0QzpCGzU3BlyEZtumzFXQi2+/4n+i96l9D/ZvvKzESEOuG26dy1pfNL9Sx7fibevehj3G7YvRLH+RCPL+MS17KWrJyz+OKlrR+ZL+yKcybtOK+LmMigT9i96/bfAvxT3mZ0/AQpxkzmFuMmEKSRAAvkTKJQQX7lwCLdeOYgNdw7HkhB5oowoa/+kCS2ZHxK6ISHstWqduY5YjCkjQ1HUjHgg5JWUV0JJSXH33KlA5lv8i5g1TkP+x/XfEsse47/bflJe1IGQfZWZXYirm55sNype+7H+WfiF/IvjEwjVhvuvuiwrujd+4eurhkq5DDnrnNF+qM2Ek1DfZDn3psa/nqJ1W8Qn2izPC02AQtwcHgpxkwlTSIAE8idQKCG+8S4psnvuiBfiIk8IcVHW/kkTOnFCJCJUY4WeZjWxjBLiWnn/UM+L+hM99ysFB55dfbY9mPGM63+kf6K1JP8z5NntKzdThHgotKIEN5berRrnf1ahbOEX6stE21f9i/u12A8VzWg/VCfhxO2bnY24JpxyGZVKzbvJE+1Y/GuGT4JLzCoeAQpxc0woxE0mTCEBEsifQKGEuOj+W/3xoSkiXEWErYgy8Z80oZMmRLyWQ+IkxlpiGV1sm/X9WUtDSFn8C1WX7Za0xY5yRlmJsbj+t0qIp9lXzqYIcd1/VcX9jfNf9c8rHMvewi9UdqLth5y1nFjsh0pltB+qk3BiXD+qbB21mpyJd9xdalRolsW/ZvgoM/ztCAIU4uYwUYibTJhCAiSQP4HCCXG1a8rEF2uqwA8186uEXJwQUfneIITESczAJJZJFuJwFx06KP//7V29UsMwDH6uvhCw9z2ydYSRR2DnNXrHzMBEO3D83IWT5c+RbDkOpJdLQF2aOrZ+PnX4nEgyFZSqNAKLqIliTUtnGIP91nrku2d+WLIwpXbPGlf6IaBNxDFTf9fsh39xtmVHuNWK71z52tryl6Wf48f95ifqh5ulAj1iYU+54WqW/C9a9oli1VYxq5LrP7aCgBPxMlJOxEtMfMQRcASWR2B9RPyD2xe+vpQFmeia8vk+BlSb6IwXq0E2iOTQfhB3ehTBpWJN5IGnGX21a0qawvIpvUPlE4d9A/UQR7FlXuwX1+26/iHYQSSPO2Nw54zof1qfF+ORgmjvBPt3lNYQ57PpLf1wEHHo0nqZA09P9GufPD7BP7VZoZX1+OTruW85ngijfzrwjfj9QH7Nboxr/Xn8gIvw3yLT0T/6f4xAFdOL9CaF37ZQTvqMYk2p1LQP3vr3FhBwIl5GyYl4iYmPOAKOwPIIrI6IEwSH61M4UVMSbrp+vH/rDzenBkpTiM5Y+7ZB/LGTB/KA7IDoDm0NU660InNMFCWfGSTzFQibbj1H90r71JxjF8l3POwnEOrMvqta+7mp9hPHs/znNwxM/i39wktpJ+WEBzCM+IgluMzbIw7t9TBjxD4Dv3z9PPmDDfbVWPwM/02iizg1Tm4119LmSxwI9av2ha2Ngu25j64TASfiZVyciJeY+Igj4Agsj8Aqifjz01d/uz+HnuE44p76h9/tzz3d+yuflCd+UYcMondR+f9cWCC+xibMeLOxCFIxxUlt1BZR7Eq2hIAT8TJaTsRLTHzEEXAElkfgG0OPfbTcS8fdAAAAAElFTkSuQmCC;" vertex="1" parent="WIyWlLk6GJQsqaUBKTNV-1">
          <mxGeometry x="-1010" y="-490" width="738" height="425" as="geometry" />
        </mxCell>
      </root>
    </mxGraphModel>
  </diagram>
</mxfile>
